<mxfile host="Electron" modified="2023-06-22T09:03:16.066Z" agent="Mozilla/5.0 (Macintosh; Intel Mac OS X 10_15_7) AppleWebKit/537.36 (KHTML, like Gecko) draw.io/21.2.8 Chrome/112.0.5615.165 Electron/24.2.0 Safari/537.36" etag="NNpQ2KGP_T5GRwM_KTOX" version="21.2.8" type="device" pages="3">
  <diagram name="Page-1" id="jhs1zA3TE3T8xmZWvfw9">
    <mxGraphModel dx="2142" dy="2468" grid="1" gridSize="10" guides="1" tooltips="1" connect="1" arrows="1" fold="1" page="1" pageScale="1" pageWidth="900" pageHeight="1600" math="0" shadow="0">
      <root>
        <mxCell id="0" />
        <mxCell id="1" parent="0" />
        <mxCell id="Gc8rLELLxfOOZFqkwzp0-15" value="Onboarding" style="shape=table;startSize=30;container=1;collapsible=1;childLayout=tableLayout;fixedRows=1;rowLines=0;fontStyle=1;align=center;resizeLast=1;movable=0;resizable=0;rotatable=0;deletable=0;editable=0;locked=1;connectable=0;" parent="1" vertex="1">
          <mxGeometry x="510" y="1020" width="250" height="130" as="geometry" />
        </mxCell>
        <mxCell id="Gc8rLELLxfOOZFqkwzp0-16" value="" style="shape=partialRectangle;collapsible=0;dropTarget=0;pointerEvents=0;fillColor=none;points=[[0,0.5],[1,0.5]];portConstraint=eastwest;top=0;left=0;right=0;bottom=1;" parent="Gc8rLELLxfOOZFqkwzp0-15" vertex="1">
          <mxGeometry y="30" width="250" height="20" as="geometry" />
        </mxCell>
        <mxCell id="Gc8rLELLxfOOZFqkwzp0-17" value="" style="shape=partialRectangle;overflow=hidden;connectable=0;fillColor=none;top=0;left=0;bottom=0;right=0;fontStyle=1;" parent="Gc8rLELLxfOOZFqkwzp0-16" vertex="1">
          <mxGeometry width="30" height="20" as="geometry">
            <mxRectangle width="30" height="20" as="alternateBounds" />
          </mxGeometry>
        </mxCell>
        <mxCell id="Gc8rLELLxfOOZFqkwzp0-18" value="" style="shape=partialRectangle;overflow=hidden;connectable=0;fillColor=none;top=0;left=0;bottom=0;right=0;align=left;spacingLeft=6;fontStyle=5;" parent="Gc8rLELLxfOOZFqkwzp0-16" vertex="1">
          <mxGeometry x="30" width="220" height="20" as="geometry">
            <mxRectangle width="220" height="20" as="alternateBounds" />
          </mxGeometry>
        </mxCell>
        <mxCell id="Gc8rLELLxfOOZFqkwzp0-19" value="" style="shape=partialRectangle;collapsible=0;dropTarget=0;pointerEvents=0;fillColor=none;points=[[0,0.5],[1,0.5]];portConstraint=eastwest;top=0;left=0;right=0;bottom=0;" parent="Gc8rLELLxfOOZFqkwzp0-15" vertex="1">
          <mxGeometry y="50" width="250" height="80" as="geometry" />
        </mxCell>
        <mxCell id="Gc8rLELLxfOOZFqkwzp0-20" value="" style="shape=partialRectangle;overflow=hidden;connectable=0;fillColor=none;top=0;left=0;bottom=0;right=0;" parent="Gc8rLELLxfOOZFqkwzp0-19" vertex="1">
          <mxGeometry width="30" height="80" as="geometry">
            <mxRectangle width="30" height="80" as="alternateBounds" />
          </mxGeometry>
        </mxCell>
        <mxCell id="Gc8rLELLxfOOZFqkwzp0-21" value="" style="shape=partialRectangle;overflow=hidden;connectable=0;fillColor=none;top=0;left=0;bottom=0;right=0;align=left;spacingLeft=6;" parent="Gc8rLELLxfOOZFqkwzp0-19" vertex="1">
          <mxGeometry x="30" width="220" height="80" as="geometry">
            <mxRectangle width="220" height="80" as="alternateBounds" />
          </mxGeometry>
        </mxCell>
        <mxCell id="Gc8rLELLxfOOZFqkwzp0-22" value="Experience" style="shape=table;startSize=30;container=1;collapsible=1;childLayout=tableLayout;fixedRows=1;rowLines=0;fontStyle=1;align=center;resizeLast=1;movable=0;resizable=0;rotatable=0;deletable=0;editable=0;locked=1;connectable=0;" parent="1" vertex="1">
          <mxGeometry x="40" y="1020" width="250" height="110" as="geometry" />
        </mxCell>
        <mxCell id="Gc8rLELLxfOOZFqkwzp0-23" value="" style="shape=partialRectangle;collapsible=0;dropTarget=0;pointerEvents=0;fillColor=none;points=[[0,0.5],[1,0.5]];portConstraint=eastwest;top=0;left=0;right=0;bottom=1;" parent="Gc8rLELLxfOOZFqkwzp0-22" vertex="1">
          <mxGeometry y="30" width="250" height="20" as="geometry" />
        </mxCell>
        <mxCell id="Gc8rLELLxfOOZFqkwzp0-24" value="" style="shape=partialRectangle;overflow=hidden;connectable=0;fillColor=none;top=0;left=0;bottom=0;right=0;fontStyle=1;" parent="Gc8rLELLxfOOZFqkwzp0-23" vertex="1">
          <mxGeometry width="30" height="20" as="geometry">
            <mxRectangle width="30" height="20" as="alternateBounds" />
          </mxGeometry>
        </mxCell>
        <mxCell id="Gc8rLELLxfOOZFqkwzp0-25" value="" style="shape=partialRectangle;overflow=hidden;connectable=0;fillColor=none;top=0;left=0;bottom=0;right=0;align=left;spacingLeft=6;fontStyle=5;" parent="Gc8rLELLxfOOZFqkwzp0-23" vertex="1">
          <mxGeometry x="30" width="220" height="20" as="geometry">
            <mxRectangle width="220" height="20" as="alternateBounds" />
          </mxGeometry>
        </mxCell>
        <mxCell id="Gc8rLELLxfOOZFqkwzp0-26" value="" style="shape=partialRectangle;collapsible=0;dropTarget=0;pointerEvents=0;fillColor=none;points=[[0,0.5],[1,0.5]];portConstraint=eastwest;top=0;left=0;right=0;bottom=0;" parent="Gc8rLELLxfOOZFqkwzp0-22" vertex="1">
          <mxGeometry y="50" width="250" height="60" as="geometry" />
        </mxCell>
        <mxCell id="Gc8rLELLxfOOZFqkwzp0-27" value="" style="shape=partialRectangle;overflow=hidden;connectable=0;fillColor=none;top=0;left=0;bottom=0;right=0;" parent="Gc8rLELLxfOOZFqkwzp0-26" vertex="1">
          <mxGeometry width="30" height="60" as="geometry">
            <mxRectangle width="30" height="60" as="alternateBounds" />
          </mxGeometry>
        </mxCell>
        <mxCell id="Gc8rLELLxfOOZFqkwzp0-28" value="" style="shape=partialRectangle;overflow=hidden;connectable=0;fillColor=none;top=0;left=0;bottom=0;right=0;align=left;spacingLeft=6;" parent="Gc8rLELLxfOOZFqkwzp0-26" vertex="1">
          <mxGeometry x="30" width="220" height="60" as="geometry">
            <mxRectangle width="220" height="60" as="alternateBounds" />
          </mxGeometry>
        </mxCell>
        <mxCell id="Gc8rLELLxfOOZFqkwzp0-29" value="" style="endArrow=none;html=1;rounded=0;exitX=1;exitY=0.5;exitDx=0;exitDy=0;entryX=0;entryY=0.375;entryDx=0;entryDy=0;entryPerimeter=0;startArrow=none;startFill=0;endFill=0;movable=0;resizable=0;rotatable=0;deletable=0;editable=0;locked=1;connectable=0;" parent="1" source="Gc8rLELLxfOOZFqkwzp0-26" target="Gc8rLELLxfOOZFqkwzp0-19" edge="1">
          <mxGeometry width="50" height="50" relative="1" as="geometry">
            <mxPoint x="260" y="100" as="sourcePoint" />
            <mxPoint x="390" y="90" as="targetPoint" />
          </mxGeometry>
        </mxCell>
        <mxCell id="Gc8rLELLxfOOZFqkwzp0-30" value="Digital Experience " style="shape=table;startSize=30;container=1;collapsible=1;childLayout=tableLayout;fixedRows=1;rowLines=0;fontStyle=1;align=center;resizeLast=1;movable=0;resizable=0;rotatable=0;deletable=0;editable=0;locked=1;connectable=0;" parent="1" vertex="1">
          <mxGeometry x="1120" y="1240" width="250" height="130" as="geometry" />
        </mxCell>
        <mxCell id="Gc8rLELLxfOOZFqkwzp0-31" value="" style="shape=partialRectangle;collapsible=0;dropTarget=0;pointerEvents=0;fillColor=none;points=[[0,0.5],[1,0.5]];portConstraint=eastwest;top=0;left=0;right=0;bottom=1;" parent="Gc8rLELLxfOOZFqkwzp0-30" vertex="1">
          <mxGeometry y="30" width="250" height="20" as="geometry" />
        </mxCell>
        <mxCell id="Gc8rLELLxfOOZFqkwzp0-32" value="" style="shape=partialRectangle;overflow=hidden;connectable=0;fillColor=none;top=0;left=0;bottom=0;right=0;fontStyle=1;" parent="Gc8rLELLxfOOZFqkwzp0-31" vertex="1">
          <mxGeometry width="30" height="20" as="geometry">
            <mxRectangle width="30" height="20" as="alternateBounds" />
          </mxGeometry>
        </mxCell>
        <mxCell id="Gc8rLELLxfOOZFqkwzp0-33" value="" style="shape=partialRectangle;overflow=hidden;connectable=0;fillColor=none;top=0;left=0;bottom=0;right=0;align=left;spacingLeft=6;fontStyle=5;" parent="Gc8rLELLxfOOZFqkwzp0-31" vertex="1">
          <mxGeometry x="30" width="220" height="20" as="geometry">
            <mxRectangle width="220" height="20" as="alternateBounds" />
          </mxGeometry>
        </mxCell>
        <mxCell id="Gc8rLELLxfOOZFqkwzp0-34" value="" style="shape=partialRectangle;collapsible=0;dropTarget=0;pointerEvents=0;fillColor=none;points=[[0,0.5],[1,0.5]];portConstraint=eastwest;top=0;left=0;right=0;bottom=0;" parent="Gc8rLELLxfOOZFqkwzp0-30" vertex="1">
          <mxGeometry y="50" width="250" height="80" as="geometry" />
        </mxCell>
        <mxCell id="Gc8rLELLxfOOZFqkwzp0-35" value="" style="shape=partialRectangle;overflow=hidden;connectable=0;fillColor=none;top=0;left=0;bottom=0;right=0;" parent="Gc8rLELLxfOOZFqkwzp0-34" vertex="1">
          <mxGeometry width="30" height="80" as="geometry">
            <mxRectangle width="30" height="80" as="alternateBounds" />
          </mxGeometry>
        </mxCell>
        <mxCell id="Gc8rLELLxfOOZFqkwzp0-36" value="" style="shape=partialRectangle;overflow=hidden;connectable=0;fillColor=none;top=0;left=0;bottom=0;right=0;align=left;spacingLeft=6;" parent="Gc8rLELLxfOOZFqkwzp0-34" vertex="1">
          <mxGeometry x="30" width="220" height="80" as="geometry">
            <mxRectangle width="220" height="80" as="alternateBounds" />
          </mxGeometry>
        </mxCell>
        <mxCell id="Gc8rLELLxfOOZFqkwzp0-37" value="Device Experience " style="shape=table;startSize=30;container=1;collapsible=1;childLayout=tableLayout;fixedRows=1;rowLines=0;fontStyle=1;align=center;resizeLast=1;movable=0;resizable=0;rotatable=0;deletable=0;editable=0;locked=1;connectable=0;" parent="1" vertex="1">
          <mxGeometry x="1120" y="1050" width="250" height="130" as="geometry" />
        </mxCell>
        <mxCell id="Gc8rLELLxfOOZFqkwzp0-38" value="" style="shape=partialRectangle;collapsible=0;dropTarget=0;pointerEvents=0;fillColor=none;points=[[0,0.5],[1,0.5]];portConstraint=eastwest;top=0;left=0;right=0;bottom=1;" parent="Gc8rLELLxfOOZFqkwzp0-37" vertex="1">
          <mxGeometry y="30" width="250" height="20" as="geometry" />
        </mxCell>
        <mxCell id="Gc8rLELLxfOOZFqkwzp0-39" value="" style="shape=partialRectangle;overflow=hidden;connectable=0;fillColor=none;top=0;left=0;bottom=0;right=0;fontStyle=1;" parent="Gc8rLELLxfOOZFqkwzp0-38" vertex="1">
          <mxGeometry width="30" height="20" as="geometry">
            <mxRectangle width="30" height="20" as="alternateBounds" />
          </mxGeometry>
        </mxCell>
        <mxCell id="Gc8rLELLxfOOZFqkwzp0-40" value="" style="shape=partialRectangle;overflow=hidden;connectable=0;fillColor=none;top=0;left=0;bottom=0;right=0;align=left;spacingLeft=6;fontStyle=5;" parent="Gc8rLELLxfOOZFqkwzp0-38" vertex="1">
          <mxGeometry x="30" width="220" height="20" as="geometry">
            <mxRectangle width="220" height="20" as="alternateBounds" />
          </mxGeometry>
        </mxCell>
        <mxCell id="Gc8rLELLxfOOZFqkwzp0-41" value="" style="shape=partialRectangle;collapsible=0;dropTarget=0;pointerEvents=0;fillColor=none;points=[[0,0.5],[1,0.5]];portConstraint=eastwest;top=0;left=0;right=0;bottom=0;" parent="Gc8rLELLxfOOZFqkwzp0-37" vertex="1">
          <mxGeometry y="50" width="250" height="80" as="geometry" />
        </mxCell>
        <mxCell id="Gc8rLELLxfOOZFqkwzp0-42" value="" style="shape=partialRectangle;overflow=hidden;connectable=0;fillColor=none;top=0;left=0;bottom=0;right=0;" parent="Gc8rLELLxfOOZFqkwzp0-41" vertex="1">
          <mxGeometry width="30" height="80" as="geometry">
            <mxRectangle width="30" height="80" as="alternateBounds" />
          </mxGeometry>
        </mxCell>
        <mxCell id="Gc8rLELLxfOOZFqkwzp0-43" value="" style="shape=partialRectangle;overflow=hidden;connectable=0;fillColor=none;top=0;left=0;bottom=0;right=0;align=left;spacingLeft=6;" parent="Gc8rLELLxfOOZFqkwzp0-41" vertex="1">
          <mxGeometry x="30" width="220" height="80" as="geometry">
            <mxRectangle width="220" height="80" as="alternateBounds" />
          </mxGeometry>
        </mxCell>
        <mxCell id="Gc8rLELLxfOOZFqkwzp0-44" value="Support Experience " style="shape=table;startSize=30;container=1;collapsible=1;childLayout=tableLayout;fixedRows=1;rowLines=0;fontStyle=1;align=center;resizeLast=1;movable=0;resizable=0;rotatable=0;deletable=0;editable=0;locked=1;connectable=0;" parent="1" vertex="1">
          <mxGeometry x="1120" y="880" width="250" height="130" as="geometry" />
        </mxCell>
        <mxCell id="Gc8rLELLxfOOZFqkwzp0-45" value="" style="shape=partialRectangle;collapsible=0;dropTarget=0;pointerEvents=0;fillColor=none;points=[[0,0.5],[1,0.5]];portConstraint=eastwest;top=0;left=0;right=0;bottom=1;" parent="Gc8rLELLxfOOZFqkwzp0-44" vertex="1">
          <mxGeometry y="30" width="250" height="20" as="geometry" />
        </mxCell>
        <mxCell id="Gc8rLELLxfOOZFqkwzp0-46" value="" style="shape=partialRectangle;overflow=hidden;connectable=0;fillColor=none;top=0;left=0;bottom=0;right=0;fontStyle=1;" parent="Gc8rLELLxfOOZFqkwzp0-45" vertex="1">
          <mxGeometry width="30" height="20" as="geometry">
            <mxRectangle width="30" height="20" as="alternateBounds" />
          </mxGeometry>
        </mxCell>
        <mxCell id="Gc8rLELLxfOOZFqkwzp0-47" value="" style="shape=partialRectangle;overflow=hidden;connectable=0;fillColor=none;top=0;left=0;bottom=0;right=0;align=left;spacingLeft=6;fontStyle=5;" parent="Gc8rLELLxfOOZFqkwzp0-45" vertex="1">
          <mxGeometry x="30" width="220" height="20" as="geometry">
            <mxRectangle width="220" height="20" as="alternateBounds" />
          </mxGeometry>
        </mxCell>
        <mxCell id="Gc8rLELLxfOOZFqkwzp0-48" value="" style="shape=partialRectangle;collapsible=0;dropTarget=0;pointerEvents=0;fillColor=none;points=[[0,0.5],[1,0.5]];portConstraint=eastwest;top=0;left=0;right=0;bottom=0;" parent="Gc8rLELLxfOOZFqkwzp0-44" vertex="1">
          <mxGeometry y="50" width="250" height="80" as="geometry" />
        </mxCell>
        <mxCell id="Gc8rLELLxfOOZFqkwzp0-49" value="" style="shape=partialRectangle;overflow=hidden;connectable=0;fillColor=none;top=0;left=0;bottom=0;right=0;" parent="Gc8rLELLxfOOZFqkwzp0-48" vertex="1">
          <mxGeometry width="30" height="80" as="geometry">
            <mxRectangle width="30" height="80" as="alternateBounds" />
          </mxGeometry>
        </mxCell>
        <mxCell id="Gc8rLELLxfOOZFqkwzp0-50" value="" style="shape=partialRectangle;overflow=hidden;connectable=0;fillColor=none;top=0;left=0;bottom=0;right=0;align=left;spacingLeft=6;" parent="Gc8rLELLxfOOZFqkwzp0-48" vertex="1">
          <mxGeometry x="30" width="220" height="80" as="geometry">
            <mxRectangle width="220" height="80" as="alternateBounds" />
          </mxGeometry>
        </mxCell>
        <mxCell id="Gc8rLELLxfOOZFqkwzp0-51" style="edgeStyle=orthogonalEdgeStyle;rounded=0;orthogonalLoop=1;jettySize=auto;html=1;entryX=-0.008;entryY=0.35;entryDx=0;entryDy=0;entryPerimeter=0;endArrow=none;endFill=0;movable=0;resizable=0;rotatable=0;deletable=0;editable=0;locked=1;connectable=0;" parent="1" source="Gc8rLELLxfOOZFqkwzp0-19" target="Gc8rLELLxfOOZFqkwzp0-34" edge="1">
          <mxGeometry relative="1" as="geometry">
            <Array as="points">
              <mxPoint x="850" y="1110" />
              <mxPoint x="850" y="1320" />
              <mxPoint x="1118" y="1320" />
            </Array>
          </mxGeometry>
        </mxCell>
        <mxCell id="Gc8rLELLxfOOZFqkwzp0-52" style="edgeStyle=orthogonalEdgeStyle;rounded=0;orthogonalLoop=1;jettySize=auto;html=1;entryX=-0.011;entryY=0.05;entryDx=0;entryDy=0;entryPerimeter=0;endArrow=none;endFill=0;movable=0;resizable=0;rotatable=0;deletable=0;editable=0;locked=1;connectable=0;" parent="1" source="Gc8rLELLxfOOZFqkwzp0-19" target="Gc8rLELLxfOOZFqkwzp0-41" edge="1">
          <mxGeometry relative="1" as="geometry">
            <Array as="points">
              <mxPoint x="1117" y="1100" />
            </Array>
          </mxGeometry>
        </mxCell>
        <mxCell id="Gc8rLELLxfOOZFqkwzp0-53" style="edgeStyle=orthogonalEdgeStyle;rounded=0;orthogonalLoop=1;jettySize=auto;html=1;entryX=0.003;entryY=0.367;entryDx=0;entryDy=0;entryPerimeter=0;endArrow=none;endFill=0;movable=0;resizable=0;rotatable=0;deletable=0;editable=0;locked=1;connectable=0;" parent="1" source="Gc8rLELLxfOOZFqkwzp0-19" target="Gc8rLELLxfOOZFqkwzp0-48" edge="1">
          <mxGeometry relative="1" as="geometry">
            <Array as="points">
              <mxPoint x="850" y="1090" />
              <mxPoint x="850" y="959" />
            </Array>
          </mxGeometry>
        </mxCell>
        <mxCell id="Gc8rLELLxfOOZFqkwzp0-54" style="edgeStyle=orthogonalEdgeStyle;rounded=0;orthogonalLoop=1;jettySize=auto;html=1;endArrow=none;endFill=0;entryX=0.355;entryY=-0.021;entryDx=0;entryDy=0;entryPerimeter=0;movable=0;resizable=0;rotatable=0;deletable=0;editable=0;locked=1;connectable=0;" parent="1" source="Gc8rLELLxfOOZFqkwzp0-55" target="Gc8rLELLxfOOZFqkwzp0-15" edge="1">
          <mxGeometry relative="1" as="geometry">
            <mxPoint x="600" y="1010" as="targetPoint" />
            <Array as="points">
              <mxPoint x="460" y="935" />
              <mxPoint x="600" y="935" />
              <mxPoint x="600" y="1017" />
            </Array>
          </mxGeometry>
        </mxCell>
        <mxCell id="Gc8rLELLxfOOZFqkwzp0-55" value="Onboarding Sentiment " style="shape=table;startSize=30;container=1;collapsible=1;childLayout=tableLayout;fixedRows=1;rowLines=0;fontStyle=1;align=center;resizeLast=1;movable=0;resizable=0;rotatable=0;deletable=0;editable=0;locked=1;connectable=0;" parent="1" vertex="1">
          <mxGeometry x="310" y="720" width="250" height="130" as="geometry" />
        </mxCell>
        <mxCell id="Gc8rLELLxfOOZFqkwzp0-56" value="" style="shape=partialRectangle;collapsible=0;dropTarget=0;pointerEvents=0;fillColor=none;points=[[0,0.5],[1,0.5]];portConstraint=eastwest;top=0;left=0;right=0;bottom=1;" parent="Gc8rLELLxfOOZFqkwzp0-55" vertex="1">
          <mxGeometry y="30" width="250" height="20" as="geometry" />
        </mxCell>
        <mxCell id="Gc8rLELLxfOOZFqkwzp0-57" value="" style="shape=partialRectangle;overflow=hidden;connectable=0;fillColor=none;top=0;left=0;bottom=0;right=0;fontStyle=1;" parent="Gc8rLELLxfOOZFqkwzp0-56" vertex="1">
          <mxGeometry width="30" height="20" as="geometry">
            <mxRectangle width="30" height="20" as="alternateBounds" />
          </mxGeometry>
        </mxCell>
        <mxCell id="Gc8rLELLxfOOZFqkwzp0-58" value="" style="shape=partialRectangle;overflow=hidden;connectable=0;fillColor=none;top=0;left=0;bottom=0;right=0;align=left;spacingLeft=6;fontStyle=5;" parent="Gc8rLELLxfOOZFqkwzp0-56" vertex="1">
          <mxGeometry x="30" width="220" height="20" as="geometry">
            <mxRectangle width="220" height="20" as="alternateBounds" />
          </mxGeometry>
        </mxCell>
        <mxCell id="Gc8rLELLxfOOZFqkwzp0-59" value="" style="shape=partialRectangle;collapsible=0;dropTarget=0;pointerEvents=0;fillColor=none;points=[[0,0.5],[1,0.5]];portConstraint=eastwest;top=0;left=0;right=0;bottom=0;" parent="Gc8rLELLxfOOZFqkwzp0-55" vertex="1">
          <mxGeometry y="50" width="250" height="80" as="geometry" />
        </mxCell>
        <mxCell id="Gc8rLELLxfOOZFqkwzp0-60" value="" style="shape=partialRectangle;overflow=hidden;connectable=0;fillColor=none;top=0;left=0;bottom=0;right=0;" parent="Gc8rLELLxfOOZFqkwzp0-59" vertex="1">
          <mxGeometry width="30" height="80" as="geometry">
            <mxRectangle width="30" height="80" as="alternateBounds" />
          </mxGeometry>
        </mxCell>
        <mxCell id="Gc8rLELLxfOOZFqkwzp0-61" value="" style="shape=partialRectangle;overflow=hidden;connectable=0;fillColor=none;top=0;left=0;bottom=0;right=0;align=left;spacingLeft=6;" parent="Gc8rLELLxfOOZFqkwzp0-59" vertex="1">
          <mxGeometry x="30" width="220" height="80" as="geometry">
            <mxRectangle width="220" height="80" as="alternateBounds" />
          </mxGeometry>
        </mxCell>
        <mxCell id="Gc8rLELLxfOOZFqkwzp0-62" style="edgeStyle=orthogonalEdgeStyle;rounded=0;orthogonalLoop=1;jettySize=auto;html=1;entryX=0.5;entryY=0;entryDx=0;entryDy=0;endArrow=none;endFill=0;movable=0;resizable=0;rotatable=0;deletable=0;editable=0;locked=1;connectable=0;" parent="1" source="Gc8rLELLxfOOZFqkwzp0-63" target="Gc8rLELLxfOOZFqkwzp0-15" edge="1">
          <mxGeometry relative="1" as="geometry">
            <Array as="points">
              <mxPoint x="800" y="935" />
              <mxPoint x="640" y="935" />
              <mxPoint x="640" y="1020" />
            </Array>
          </mxGeometry>
        </mxCell>
        <mxCell id="Gc8rLELLxfOOZFqkwzp0-63" value="End to End Device Delivery Time " style="shape=table;startSize=30;container=1;collapsible=1;childLayout=tableLayout;fixedRows=1;rowLines=0;fontStyle=1;align=center;resizeLast=1;movable=1;resizable=1;rotatable=1;deletable=1;editable=1;locked=0;connectable=1;" parent="1" vertex="1">
          <mxGeometry x="660" y="720" width="250" height="130" as="geometry" />
        </mxCell>
        <mxCell id="Gc8rLELLxfOOZFqkwzp0-64" value="" style="shape=partialRectangle;collapsible=0;dropTarget=0;pointerEvents=0;fillColor=none;points=[[0,0.5],[1,0.5]];portConstraint=eastwest;top=0;left=0;right=0;bottom=1;" parent="Gc8rLELLxfOOZFqkwzp0-63" vertex="1">
          <mxGeometry y="30" width="250" height="20" as="geometry" />
        </mxCell>
        <mxCell id="Gc8rLELLxfOOZFqkwzp0-65" value="" style="shape=partialRectangle;overflow=hidden;connectable=0;fillColor=none;top=0;left=0;bottom=0;right=0;fontStyle=1;" parent="Gc8rLELLxfOOZFqkwzp0-64" vertex="1">
          <mxGeometry width="30" height="20" as="geometry">
            <mxRectangle width="30" height="20" as="alternateBounds" />
          </mxGeometry>
        </mxCell>
        <mxCell id="Gc8rLELLxfOOZFqkwzp0-66" value="" style="shape=partialRectangle;overflow=hidden;connectable=0;fillColor=none;top=0;left=0;bottom=0;right=0;align=left;spacingLeft=6;fontStyle=5;" parent="Gc8rLELLxfOOZFqkwzp0-64" vertex="1">
          <mxGeometry x="30" width="220" height="20" as="geometry">
            <mxRectangle width="220" height="20" as="alternateBounds" />
          </mxGeometry>
        </mxCell>
        <mxCell id="Gc8rLELLxfOOZFqkwzp0-67" value="" style="shape=partialRectangle;collapsible=0;dropTarget=0;pointerEvents=0;fillColor=none;points=[[0,0.5],[1,0.5]];portConstraint=eastwest;top=0;left=0;right=0;bottom=0;" parent="Gc8rLELLxfOOZFqkwzp0-63" vertex="1">
          <mxGeometry y="50" width="250" height="80" as="geometry" />
        </mxCell>
        <mxCell id="Gc8rLELLxfOOZFqkwzp0-68" value="" style="shape=partialRectangle;overflow=hidden;connectable=0;fillColor=none;top=0;left=0;bottom=0;right=0;" parent="Gc8rLELLxfOOZFqkwzp0-67" vertex="1">
          <mxGeometry width="30" height="80" as="geometry">
            <mxRectangle width="30" height="80" as="alternateBounds" />
          </mxGeometry>
        </mxCell>
        <mxCell id="Gc8rLELLxfOOZFqkwzp0-69" value="" style="shape=partialRectangle;overflow=hidden;connectable=0;fillColor=none;top=0;left=0;bottom=0;right=0;align=left;spacingLeft=6;" parent="Gc8rLELLxfOOZFqkwzp0-67" vertex="1">
          <mxGeometry x="30" width="220" height="80" as="geometry">
            <mxRectangle width="220" height="80" as="alternateBounds" />
          </mxGeometry>
        </mxCell>
        <mxCell id="Gc8rLELLxfOOZFqkwzp0-70" style="edgeStyle=orthogonalEdgeStyle;rounded=0;orthogonalLoop=1;jettySize=auto;html=1;endArrow=none;endFill=0;movable=0;resizable=0;rotatable=0;deletable=0;editable=0;locked=1;connectable=0;" parent="1" source="Gc8rLELLxfOOZFqkwzp0-71" target="Gc8rLELLxfOOZFqkwzp0-55" edge="1">
          <mxGeometry relative="1" as="geometry">
            <Array as="points">
              <mxPoint x="440" y="670" />
              <mxPoint x="440" y="670" />
            </Array>
          </mxGeometry>
        </mxCell>
        <mxCell id="Gc8rLELLxfOOZFqkwzp0-71" value="User Experience Index" style="shape=table;startSize=30;container=1;collapsible=1;childLayout=tableLayout;fixedRows=1;rowLines=0;fontStyle=1;align=center;resizeLast=1;movable=0;resizable=0;rotatable=0;deletable=0;editable=0;locked=1;connectable=0;" parent="1" vertex="1">
          <mxGeometry x="320" y="440" width="250" height="130" as="geometry">
            <mxRectangle x="320" y="440" width="170" height="30" as="alternateBounds" />
          </mxGeometry>
        </mxCell>
        <mxCell id="Gc8rLELLxfOOZFqkwzp0-72" value="" style="shape=partialRectangle;collapsible=0;dropTarget=0;pointerEvents=0;fillColor=none;points=[[0,0.5],[1,0.5]];portConstraint=eastwest;top=0;left=0;right=0;bottom=1;" parent="Gc8rLELLxfOOZFqkwzp0-71" vertex="1">
          <mxGeometry y="30" width="250" height="20" as="geometry" />
        </mxCell>
        <mxCell id="Gc8rLELLxfOOZFqkwzp0-73" value="" style="shape=partialRectangle;overflow=hidden;connectable=0;fillColor=none;top=0;left=0;bottom=0;right=0;fontStyle=1;" parent="Gc8rLELLxfOOZFqkwzp0-72" vertex="1">
          <mxGeometry width="30" height="20" as="geometry">
            <mxRectangle width="30" height="20" as="alternateBounds" />
          </mxGeometry>
        </mxCell>
        <mxCell id="Gc8rLELLxfOOZFqkwzp0-74" value="" style="shape=partialRectangle;overflow=hidden;connectable=0;fillColor=none;top=0;left=0;bottom=0;right=0;align=left;spacingLeft=6;fontStyle=5;" parent="Gc8rLELLxfOOZFqkwzp0-72" vertex="1">
          <mxGeometry x="30" width="220" height="20" as="geometry">
            <mxRectangle width="220" height="20" as="alternateBounds" />
          </mxGeometry>
        </mxCell>
        <mxCell id="Gc8rLELLxfOOZFqkwzp0-75" value="" style="shape=partialRectangle;collapsible=0;dropTarget=0;pointerEvents=0;fillColor=none;points=[[0,0.5],[1,0.5]];portConstraint=eastwest;top=0;left=0;right=0;bottom=0;" parent="Gc8rLELLxfOOZFqkwzp0-71" vertex="1">
          <mxGeometry y="50" width="250" height="80" as="geometry" />
        </mxCell>
        <mxCell id="Gc8rLELLxfOOZFqkwzp0-76" value="" style="shape=partialRectangle;overflow=hidden;connectable=0;fillColor=none;top=0;left=0;bottom=0;right=0;" parent="Gc8rLELLxfOOZFqkwzp0-75" vertex="1">
          <mxGeometry width="30" height="80" as="geometry">
            <mxRectangle width="30" height="80" as="alternateBounds" />
          </mxGeometry>
        </mxCell>
        <mxCell id="Gc8rLELLxfOOZFqkwzp0-77" value="" style="shape=partialRectangle;overflow=hidden;connectable=0;fillColor=none;top=0;left=0;bottom=0;right=0;align=left;spacingLeft=6;" parent="Gc8rLELLxfOOZFqkwzp0-75" vertex="1">
          <mxGeometry x="30" width="220" height="80" as="geometry">
            <mxRectangle width="220" height="80" as="alternateBounds" />
          </mxGeometry>
        </mxCell>
        <mxCell id="Gc8rLELLxfOOZFqkwzp0-78" value="UEM Experience Index" style="shape=table;startSize=30;container=1;collapsible=1;childLayout=tableLayout;fixedRows=1;rowLines=0;fontStyle=1;align=center;resizeLast=1;movable=0;resizable=0;rotatable=0;deletable=0;editable=0;locked=1;connectable=0;" parent="1" vertex="1">
          <mxGeometry x="720" y="440" width="250" height="130" as="geometry" />
        </mxCell>
        <mxCell id="Gc8rLELLxfOOZFqkwzp0-79" value="" style="shape=partialRectangle;collapsible=0;dropTarget=0;pointerEvents=0;fillColor=none;points=[[0,0.5],[1,0.5]];portConstraint=eastwest;top=0;left=0;right=0;bottom=1;" parent="Gc8rLELLxfOOZFqkwzp0-78" vertex="1">
          <mxGeometry y="30" width="250" height="20" as="geometry" />
        </mxCell>
        <mxCell id="Gc8rLELLxfOOZFqkwzp0-80" value="" style="shape=partialRectangle;overflow=hidden;connectable=0;fillColor=none;top=0;left=0;bottom=0;right=0;fontStyle=1;" parent="Gc8rLELLxfOOZFqkwzp0-79" vertex="1">
          <mxGeometry width="30" height="20" as="geometry">
            <mxRectangle width="30" height="20" as="alternateBounds" />
          </mxGeometry>
        </mxCell>
        <mxCell id="Gc8rLELLxfOOZFqkwzp0-81" value="" style="shape=partialRectangle;overflow=hidden;connectable=0;fillColor=none;top=0;left=0;bottom=0;right=0;align=left;spacingLeft=6;fontStyle=5;" parent="Gc8rLELLxfOOZFqkwzp0-79" vertex="1">
          <mxGeometry x="30" width="220" height="20" as="geometry">
            <mxRectangle width="220" height="20" as="alternateBounds" />
          </mxGeometry>
        </mxCell>
        <mxCell id="Gc8rLELLxfOOZFqkwzp0-82" value="" style="shape=partialRectangle;collapsible=0;dropTarget=0;pointerEvents=0;fillColor=none;points=[[0,0.5],[1,0.5]];portConstraint=eastwest;top=0;left=0;right=0;bottom=0;" parent="Gc8rLELLxfOOZFqkwzp0-78" vertex="1">
          <mxGeometry y="50" width="250" height="80" as="geometry" />
        </mxCell>
        <mxCell id="Gc8rLELLxfOOZFqkwzp0-83" value="" style="shape=partialRectangle;overflow=hidden;connectable=0;fillColor=none;top=0;left=0;bottom=0;right=0;" parent="Gc8rLELLxfOOZFqkwzp0-82" vertex="1">
          <mxGeometry width="30" height="80" as="geometry">
            <mxRectangle width="30" height="80" as="alternateBounds" />
          </mxGeometry>
        </mxCell>
        <mxCell id="Gc8rLELLxfOOZFqkwzp0-84" value="" style="shape=partialRectangle;overflow=hidden;connectable=0;fillColor=none;top=0;left=0;bottom=0;right=0;align=left;spacingLeft=6;" parent="Gc8rLELLxfOOZFqkwzp0-82" vertex="1">
          <mxGeometry x="30" width="220" height="80" as="geometry">
            <mxRectangle width="220" height="80" as="alternateBounds" />
          </mxGeometry>
        </mxCell>
        <mxCell id="Gc8rLELLxfOOZFqkwzp0-85" style="edgeStyle=orthogonalEdgeStyle;rounded=0;orthogonalLoop=1;jettySize=auto;html=1;entryX=0;entryY=0.5;entryDx=0;entryDy=0;endArrow=none;endFill=0;movable=0;resizable=0;rotatable=0;deletable=0;editable=0;locked=1;connectable=0;" parent="1" source="Gc8rLELLxfOOZFqkwzp0-75" target="Gc8rLELLxfOOZFqkwzp0-82" edge="1">
          <mxGeometry relative="1" as="geometry">
            <Array as="points">
              <mxPoint x="720" y="520" />
            </Array>
          </mxGeometry>
        </mxCell>
        <mxCell id="Gc8rLELLxfOOZFqkwzp0-86" value="Ongoing Device Performance Feedback" style="shape=table;startSize=30;container=1;collapsible=1;childLayout=tableLayout;fixedRows=1;rowLines=0;fontStyle=1;align=center;resizeLast=1;movable=0;resizable=0;rotatable=0;deletable=0;editable=0;locked=1;connectable=0;" parent="1" vertex="1">
          <mxGeometry x="1120" y="440" width="250" height="130" as="geometry" />
        </mxCell>
        <mxCell id="Gc8rLELLxfOOZFqkwzp0-87" value="" style="shape=partialRectangle;collapsible=0;dropTarget=0;pointerEvents=0;fillColor=none;points=[[0,0.5],[1,0.5]];portConstraint=eastwest;top=0;left=0;right=0;bottom=1;" parent="Gc8rLELLxfOOZFqkwzp0-86" vertex="1">
          <mxGeometry y="30" width="250" height="20" as="geometry" />
        </mxCell>
        <mxCell id="Gc8rLELLxfOOZFqkwzp0-88" value="" style="shape=partialRectangle;overflow=hidden;connectable=0;fillColor=none;top=0;left=0;bottom=0;right=0;fontStyle=1;" parent="Gc8rLELLxfOOZFqkwzp0-87" vertex="1">
          <mxGeometry width="30" height="20" as="geometry">
            <mxRectangle width="30" height="20" as="alternateBounds" />
          </mxGeometry>
        </mxCell>
        <mxCell id="Gc8rLELLxfOOZFqkwzp0-89" value="" style="shape=partialRectangle;overflow=hidden;connectable=0;fillColor=none;top=0;left=0;bottom=0;right=0;align=left;spacingLeft=6;fontStyle=5;" parent="Gc8rLELLxfOOZFqkwzp0-87" vertex="1">
          <mxGeometry x="30" width="220" height="20" as="geometry">
            <mxRectangle width="220" height="20" as="alternateBounds" />
          </mxGeometry>
        </mxCell>
        <mxCell id="Gc8rLELLxfOOZFqkwzp0-90" value="" style="shape=partialRectangle;collapsible=0;dropTarget=0;pointerEvents=0;fillColor=none;points=[[0,0.5],[1,0.5]];portConstraint=eastwest;top=0;left=0;right=0;bottom=0;" parent="Gc8rLELLxfOOZFqkwzp0-86" vertex="1">
          <mxGeometry y="50" width="250" height="80" as="geometry" />
        </mxCell>
        <mxCell id="Gc8rLELLxfOOZFqkwzp0-91" value="" style="shape=partialRectangle;overflow=hidden;connectable=0;fillColor=none;top=0;left=0;bottom=0;right=0;" parent="Gc8rLELLxfOOZFqkwzp0-90" vertex="1">
          <mxGeometry width="30" height="80" as="geometry">
            <mxRectangle width="30" height="80" as="alternateBounds" />
          </mxGeometry>
        </mxCell>
        <mxCell id="Gc8rLELLxfOOZFqkwzp0-92" value="" style="shape=partialRectangle;overflow=hidden;connectable=0;fillColor=none;top=0;left=0;bottom=0;right=0;align=left;spacingLeft=6;" parent="Gc8rLELLxfOOZFqkwzp0-90" vertex="1">
          <mxGeometry x="30" width="220" height="80" as="geometry">
            <mxRectangle width="220" height="80" as="alternateBounds" />
          </mxGeometry>
        </mxCell>
        <mxCell id="Gc8rLELLxfOOZFqkwzp0-93" value="Device Health Score " style="shape=table;startSize=30;container=1;collapsible=1;childLayout=tableLayout;fixedRows=1;rowLines=0;fontStyle=1;align=center;resizeLast=1;" parent="1" vertex="1">
          <mxGeometry x="1520" y="440" width="250" height="130" as="geometry" />
        </mxCell>
        <mxCell id="Gc8rLELLxfOOZFqkwzp0-94" value="" style="shape=partialRectangle;collapsible=0;dropTarget=0;pointerEvents=0;fillColor=none;points=[[0,0.5],[1,0.5]];portConstraint=eastwest;top=0;left=0;right=0;bottom=1;" parent="Gc8rLELLxfOOZFqkwzp0-93" vertex="1">
          <mxGeometry y="30" width="250" height="20" as="geometry" />
        </mxCell>
        <mxCell id="Gc8rLELLxfOOZFqkwzp0-95" value="" style="shape=partialRectangle;overflow=hidden;connectable=0;fillColor=none;top=0;left=0;bottom=0;right=0;fontStyle=1;" parent="Gc8rLELLxfOOZFqkwzp0-94" vertex="1">
          <mxGeometry width="30" height="20" as="geometry">
            <mxRectangle width="30" height="20" as="alternateBounds" />
          </mxGeometry>
        </mxCell>
        <mxCell id="Gc8rLELLxfOOZFqkwzp0-96" value="" style="shape=partialRectangle;overflow=hidden;connectable=0;fillColor=none;top=0;left=0;bottom=0;right=0;align=left;spacingLeft=6;fontStyle=5;" parent="Gc8rLELLxfOOZFqkwzp0-94" vertex="1">
          <mxGeometry x="30" width="220" height="20" as="geometry">
            <mxRectangle width="220" height="20" as="alternateBounds" />
          </mxGeometry>
        </mxCell>
        <mxCell id="Gc8rLELLxfOOZFqkwzp0-97" value="" style="shape=partialRectangle;collapsible=0;dropTarget=0;pointerEvents=0;fillColor=none;points=[[0,0.5],[1,0.5]];portConstraint=eastwest;top=0;left=0;right=0;bottom=0;" parent="Gc8rLELLxfOOZFqkwzp0-93" vertex="1">
          <mxGeometry y="50" width="250" height="80" as="geometry" />
        </mxCell>
        <mxCell id="Gc8rLELLxfOOZFqkwzp0-98" value="" style="shape=partialRectangle;overflow=hidden;connectable=0;fillColor=none;top=0;left=0;bottom=0;right=0;" parent="Gc8rLELLxfOOZFqkwzp0-97" vertex="1">
          <mxGeometry width="30" height="80" as="geometry">
            <mxRectangle width="30" height="80" as="alternateBounds" />
          </mxGeometry>
        </mxCell>
        <mxCell id="Gc8rLELLxfOOZFqkwzp0-99" value="" style="shape=partialRectangle;overflow=hidden;connectable=0;fillColor=none;top=0;left=0;bottom=0;right=0;align=left;spacingLeft=6;" parent="Gc8rLELLxfOOZFqkwzp0-97" vertex="1">
          <mxGeometry x="30" width="220" height="80" as="geometry">
            <mxRectangle width="220" height="80" as="alternateBounds" />
          </mxGeometry>
        </mxCell>
        <mxCell id="Gc8rLELLxfOOZFqkwzp0-100" style="edgeStyle=orthogonalEdgeStyle;rounded=0;orthogonalLoop=1;jettySize=auto;html=1;entryX=-0.011;entryY=0.4;entryDx=0;entryDy=0;endArrow=none;endFill=0;entryPerimeter=0;movable=0;resizable=0;rotatable=0;deletable=0;editable=0;locked=1;connectable=0;" parent="1" source="Gc8rLELLxfOOZFqkwzp0-82" target="Gc8rLELLxfOOZFqkwzp0-90" edge="1">
          <mxGeometry relative="1" as="geometry">
            <Array as="points">
              <mxPoint x="1120" y="520" />
              <mxPoint x="1120" y="522" />
            </Array>
          </mxGeometry>
        </mxCell>
        <mxCell id="Gc8rLELLxfOOZFqkwzp0-101" style="edgeStyle=orthogonalEdgeStyle;rounded=0;orthogonalLoop=1;jettySize=auto;html=1;entryX=-0.003;entryY=0.417;entryDx=0;entryDy=0;endArrow=none;endFill=0;entryPerimeter=0;" parent="1" source="Gc8rLELLxfOOZFqkwzp0-90" target="Gc8rLELLxfOOZFqkwzp0-97" edge="1">
          <mxGeometry relative="1" as="geometry">
            <Array as="points">
              <mxPoint x="1519" y="520" />
            </Array>
          </mxGeometry>
        </mxCell>
        <mxCell id="Gc8rLELLxfOOZFqkwzp0-102" value="Successful Device Enrollment" style="shape=table;startSize=30;container=1;collapsible=1;childLayout=tableLayout;fixedRows=1;rowLines=0;fontStyle=1;align=center;resizeLast=1;movable=0;resizable=0;rotatable=0;deletable=0;editable=0;locked=1;connectable=0;" parent="1" vertex="1">
          <mxGeometry x="1120" y="720" width="250" height="130" as="geometry" />
        </mxCell>
        <mxCell id="Gc8rLELLxfOOZFqkwzp0-103" value="" style="shape=partialRectangle;collapsible=0;dropTarget=0;pointerEvents=0;fillColor=none;points=[[0,0.5],[1,0.5]];portConstraint=eastwest;top=0;left=0;right=0;bottom=1;" parent="Gc8rLELLxfOOZFqkwzp0-102" vertex="1">
          <mxGeometry y="30" width="250" height="20" as="geometry" />
        </mxCell>
        <mxCell id="Gc8rLELLxfOOZFqkwzp0-104" value="" style="shape=partialRectangle;overflow=hidden;connectable=0;fillColor=none;top=0;left=0;bottom=0;right=0;fontStyle=1;" parent="Gc8rLELLxfOOZFqkwzp0-103" vertex="1">
          <mxGeometry width="30" height="20" as="geometry">
            <mxRectangle width="30" height="20" as="alternateBounds" />
          </mxGeometry>
        </mxCell>
        <mxCell id="Gc8rLELLxfOOZFqkwzp0-105" value="" style="shape=partialRectangle;overflow=hidden;connectable=0;fillColor=none;top=0;left=0;bottom=0;right=0;align=left;spacingLeft=6;fontStyle=5;" parent="Gc8rLELLxfOOZFqkwzp0-103" vertex="1">
          <mxGeometry x="30" width="220" height="20" as="geometry">
            <mxRectangle width="220" height="20" as="alternateBounds" />
          </mxGeometry>
        </mxCell>
        <mxCell id="Gc8rLELLxfOOZFqkwzp0-106" value="" style="shape=partialRectangle;collapsible=0;dropTarget=0;pointerEvents=0;fillColor=none;points=[[0,0.5],[1,0.5]];portConstraint=eastwest;top=0;left=0;right=0;bottom=0;" parent="Gc8rLELLxfOOZFqkwzp0-102" vertex="1">
          <mxGeometry y="50" width="250" height="80" as="geometry" />
        </mxCell>
        <mxCell id="Gc8rLELLxfOOZFqkwzp0-107" value="" style="shape=partialRectangle;overflow=hidden;connectable=0;fillColor=none;top=0;left=0;bottom=0;right=0;" parent="Gc8rLELLxfOOZFqkwzp0-106" vertex="1">
          <mxGeometry width="30" height="80" as="geometry">
            <mxRectangle width="30" height="80" as="alternateBounds" />
          </mxGeometry>
        </mxCell>
        <mxCell id="Gc8rLELLxfOOZFqkwzp0-108" value="" style="shape=partialRectangle;overflow=hidden;connectable=0;fillColor=none;top=0;left=0;bottom=0;right=0;align=left;spacingLeft=6;" parent="Gc8rLELLxfOOZFqkwzp0-106" vertex="1">
          <mxGeometry x="30" width="220" height="80" as="geometry">
            <mxRectangle width="220" height="80" as="alternateBounds" />
          </mxGeometry>
        </mxCell>
        <mxCell id="Gc8rLELLxfOOZFqkwzp0-109" style="edgeStyle=orthogonalEdgeStyle;rounded=0;orthogonalLoop=1;jettySize=auto;html=1;entryX=0;entryY=0.375;entryDx=0;entryDy=0;endArrow=none;endFill=0;entryPerimeter=0;movable=0;resizable=0;rotatable=0;deletable=0;editable=0;locked=1;connectable=0;" parent="1" source="Gc8rLELLxfOOZFqkwzp0-67" target="Gc8rLELLxfOOZFqkwzp0-106" edge="1">
          <mxGeometry relative="1" as="geometry">
            <Array as="points">
              <mxPoint x="960" y="800" />
              <mxPoint x="960" y="800" />
            </Array>
          </mxGeometry>
        </mxCell>
        <mxCell id="Gc8rLELLxfOOZFqkwzp0-125" style="edgeStyle=orthogonalEdgeStyle;rounded=0;orthogonalLoop=1;jettySize=auto;html=1;endArrow=none;endFill=0;entryX=0.533;entryY=1;entryDx=0;entryDy=0;entryPerimeter=0;exitX=1;exitY=0.067;exitDx=0;exitDy=0;exitPerimeter=0;" parent="1" source="Gc8rLELLxfOOZFqkwzp0-153" target="Gc8rLELLxfOOZFqkwzp0-165" edge="1">
          <mxGeometry relative="1" as="geometry">
            <mxPoint x="1890" y="190" as="sourcePoint" />
            <mxPoint x="1960" y="90" as="targetPoint" />
            <Array as="points">
              <mxPoint x="1390" y="149" />
              <mxPoint x="1410" y="149" />
              <mxPoint x="1410" y="150" />
              <mxPoint x="1890" y="150" />
              <mxPoint x="1890" y="140" />
            </Array>
          </mxGeometry>
        </mxCell>
        <mxCell id="Gc8rLELLxfOOZFqkwzp0-159" style="edgeStyle=orthogonalEdgeStyle;rounded=0;orthogonalLoop=1;jettySize=auto;html=1;endArrow=none;endFill=0;entryX=1.011;entryY=0.608;entryDx=0;entryDy=0;entryPerimeter=0;" parent="1" target="Gc8rLELLxfOOZFqkwzp0-156" edge="1">
          <mxGeometry relative="1" as="geometry">
            <mxPoint x="2170" y="294" as="sourcePoint" />
            <mxPoint x="1531" y="294" as="targetPoint" />
            <Array as="points">
              <mxPoint x="2060" y="294" />
              <mxPoint x="2060" y="220" />
              <mxPoint x="1393" y="220" />
            </Array>
          </mxGeometry>
        </mxCell>
        <mxCell id="Gc8rLELLxfOOZFqkwzp0-133" style="edgeStyle=orthogonalEdgeStyle;rounded=0;orthogonalLoop=1;jettySize=auto;html=1;entryX=0.5;entryY=0;entryDx=0;entryDy=0;endArrow=none;endFill=0;exitX=0.469;exitY=0.996;exitDx=0;exitDy=0;exitPerimeter=0;" parent="1" source="Gc8rLELLxfOOZFqkwzp0-180" edge="1">
          <mxGeometry relative="1" as="geometry">
            <mxPoint x="2627" y="460" as="sourcePoint" />
            <mxPoint x="2680" y="560" as="targetPoint" />
            <Array as="points">
              <mxPoint x="2677" y="560" />
            </Array>
          </mxGeometry>
        </mxCell>
        <mxCell id="Gc8rLELLxfOOZFqkwzp0-151" style="edgeStyle=orthogonalEdgeStyle;rounded=0;orthogonalLoop=1;jettySize=auto;html=1;endArrow=none;endFill=0;exitX=0.005;exitY=0.575;exitDx=0;exitDy=0;exitPerimeter=0;" parent="1" source="Gc8rLELLxfOOZFqkwzp0-172" edge="1">
          <mxGeometry relative="1" as="geometry">
            <mxPoint x="2170" y="480" as="sourcePoint" />
            <mxPoint x="1650" y="439" as="targetPoint" />
            <Array as="points">
              <mxPoint x="2170" y="402" />
              <mxPoint x="2170" y="400" />
              <mxPoint x="1650" y="400" />
            </Array>
          </mxGeometry>
        </mxCell>
        <mxCell id="Gc8rLELLxfOOZFqkwzp0-152" value="User" style="shape=table;startSize=30;container=1;collapsible=1;childLayout=tableLayout;fixedRows=1;rowLines=0;fontStyle=1;align=center;resizeLast=1;" parent="1" vertex="1">
          <mxGeometry x="1140" y="120" width="250" height="130" as="geometry" />
        </mxCell>
        <mxCell id="Gc8rLELLxfOOZFqkwzp0-153" value="" style="shape=partialRectangle;collapsible=0;dropTarget=0;pointerEvents=0;fillColor=none;points=[[0,0.5],[1,0.5]];portConstraint=eastwest;top=0;left=0;right=0;bottom=1;" parent="Gc8rLELLxfOOZFqkwzp0-152" vertex="1">
          <mxGeometry y="30" width="250" height="20" as="geometry" />
        </mxCell>
        <mxCell id="Gc8rLELLxfOOZFqkwzp0-154" value="" style="shape=partialRectangle;overflow=hidden;connectable=0;fillColor=none;top=0;left=0;bottom=0;right=0;fontStyle=1;" parent="Gc8rLELLxfOOZFqkwzp0-153" vertex="1">
          <mxGeometry width="30" height="20" as="geometry">
            <mxRectangle width="30" height="20" as="alternateBounds" />
          </mxGeometry>
        </mxCell>
        <mxCell id="Gc8rLELLxfOOZFqkwzp0-155" value="" style="shape=partialRectangle;overflow=hidden;connectable=0;fillColor=none;top=0;left=0;bottom=0;right=0;align=left;spacingLeft=6;fontStyle=5;" parent="Gc8rLELLxfOOZFqkwzp0-153" vertex="1">
          <mxGeometry x="30" width="220" height="20" as="geometry">
            <mxRectangle width="220" height="20" as="alternateBounds" />
          </mxGeometry>
        </mxCell>
        <mxCell id="Gc8rLELLxfOOZFqkwzp0-156" value="" style="shape=partialRectangle;collapsible=0;dropTarget=0;pointerEvents=0;fillColor=none;points=[[0,0.5],[1,0.5]];portConstraint=eastwest;top=0;left=0;right=0;bottom=0;" parent="Gc8rLELLxfOOZFqkwzp0-152" vertex="1">
          <mxGeometry y="50" width="250" height="80" as="geometry" />
        </mxCell>
        <mxCell id="Gc8rLELLxfOOZFqkwzp0-157" value="" style="shape=partialRectangle;overflow=hidden;connectable=0;fillColor=none;top=0;left=0;bottom=0;right=0;" parent="Gc8rLELLxfOOZFqkwzp0-156" vertex="1">
          <mxGeometry width="30" height="80" as="geometry">
            <mxRectangle width="30" height="80" as="alternateBounds" />
          </mxGeometry>
        </mxCell>
        <mxCell id="Gc8rLELLxfOOZFqkwzp0-158" value="" style="shape=partialRectangle;overflow=hidden;connectable=0;fillColor=none;top=0;left=0;bottom=0;right=0;align=left;spacingLeft=6;" parent="Gc8rLELLxfOOZFqkwzp0-156" vertex="1">
          <mxGeometry x="30" width="220" height="80" as="geometry">
            <mxRectangle width="220" height="80" as="alternateBounds" />
          </mxGeometry>
        </mxCell>
        <mxCell id="Gc8rLELLxfOOZFqkwzp0-161" value="Activity" style="shape=table;startSize=30;container=1;collapsible=1;childLayout=tableLayout;fixedRows=1;rowLines=0;fontStyle=1;align=center;resizeLast=1;" parent="1" vertex="1">
          <mxGeometry x="1760" y="10" width="250" height="130" as="geometry" />
        </mxCell>
        <mxCell id="Gc8rLELLxfOOZFqkwzp0-162" value="" style="shape=partialRectangle;collapsible=0;dropTarget=0;pointerEvents=0;fillColor=none;points=[[0,0.5],[1,0.5]];portConstraint=eastwest;top=0;left=0;right=0;bottom=1;" parent="Gc8rLELLxfOOZFqkwzp0-161" vertex="1">
          <mxGeometry y="30" width="250" height="20" as="geometry" />
        </mxCell>
        <mxCell id="Gc8rLELLxfOOZFqkwzp0-163" value="" style="shape=partialRectangle;overflow=hidden;connectable=0;fillColor=none;top=0;left=0;bottom=0;right=0;fontStyle=1;" parent="Gc8rLELLxfOOZFqkwzp0-162" vertex="1">
          <mxGeometry width="30" height="20" as="geometry">
            <mxRectangle width="30" height="20" as="alternateBounds" />
          </mxGeometry>
        </mxCell>
        <mxCell id="Gc8rLELLxfOOZFqkwzp0-164" value="" style="shape=partialRectangle;overflow=hidden;connectable=0;fillColor=none;top=0;left=0;bottom=0;right=0;align=left;spacingLeft=6;fontStyle=5;" parent="Gc8rLELLxfOOZFqkwzp0-162" vertex="1">
          <mxGeometry x="30" width="220" height="20" as="geometry">
            <mxRectangle width="220" height="20" as="alternateBounds" />
          </mxGeometry>
        </mxCell>
        <mxCell id="Gc8rLELLxfOOZFqkwzp0-165" value="" style="shape=partialRectangle;collapsible=0;dropTarget=0;pointerEvents=0;fillColor=none;points=[[0,0.5],[1,0.5]];portConstraint=eastwest;top=0;left=0;right=0;bottom=0;" parent="Gc8rLELLxfOOZFqkwzp0-161" vertex="1">
          <mxGeometry y="50" width="250" height="80" as="geometry" />
        </mxCell>
        <mxCell id="Gc8rLELLxfOOZFqkwzp0-166" value="" style="shape=partialRectangle;overflow=hidden;connectable=0;fillColor=none;top=0;left=0;bottom=0;right=0;" parent="Gc8rLELLxfOOZFqkwzp0-165" vertex="1">
          <mxGeometry width="30" height="80" as="geometry">
            <mxRectangle width="30" height="80" as="alternateBounds" />
          </mxGeometry>
        </mxCell>
        <mxCell id="Gc8rLELLxfOOZFqkwzp0-167" value="" style="shape=partialRectangle;overflow=hidden;connectable=0;fillColor=none;top=0;left=0;bottom=0;right=0;align=left;spacingLeft=6;" parent="Gc8rLELLxfOOZFqkwzp0-165" vertex="1">
          <mxGeometry x="30" width="220" height="80" as="geometry">
            <mxRectangle width="220" height="80" as="alternateBounds" />
          </mxGeometry>
        </mxCell>
        <mxCell id="Gc8rLELLxfOOZFqkwzp0-191" style="edgeStyle=orthogonalEdgeStyle;rounded=0;orthogonalLoop=1;jettySize=auto;html=1;endArrow=none;endFill=0;" parent="1" source="Gc8rLELLxfOOZFqkwzp0-168" target="Gc8rLELLxfOOZFqkwzp0-184" edge="1">
          <mxGeometry relative="1" as="geometry" />
        </mxCell>
        <mxCell id="Gc8rLELLxfOOZFqkwzp0-168" value="Device" style="shape=table;startSize=30;container=1;collapsible=1;childLayout=tableLayout;fixedRows=1;rowLines=0;fontStyle=1;align=center;resizeLast=1;" parent="1" vertex="1">
          <mxGeometry x="2170" y="260" width="250" height="210" as="geometry" />
        </mxCell>
        <mxCell id="Gc8rLELLxfOOZFqkwzp0-169" value="" style="shape=partialRectangle;collapsible=0;dropTarget=0;pointerEvents=0;fillColor=none;points=[[0,0.5],[1,0.5]];portConstraint=eastwest;top=0;left=0;right=0;bottom=1;" parent="Gc8rLELLxfOOZFqkwzp0-168" vertex="1">
          <mxGeometry y="30" width="250" height="20" as="geometry" />
        </mxCell>
        <mxCell id="Gc8rLELLxfOOZFqkwzp0-170" value="" style="shape=partialRectangle;overflow=hidden;connectable=0;fillColor=none;top=0;left=0;bottom=0;right=0;fontStyle=1;" parent="Gc8rLELLxfOOZFqkwzp0-169" vertex="1">
          <mxGeometry width="30" height="20" as="geometry">
            <mxRectangle width="30" height="20" as="alternateBounds" />
          </mxGeometry>
        </mxCell>
        <mxCell id="Gc8rLELLxfOOZFqkwzp0-171" value="" style="shape=partialRectangle;overflow=hidden;connectable=0;fillColor=none;top=0;left=0;bottom=0;right=0;align=left;spacingLeft=6;fontStyle=5;" parent="Gc8rLELLxfOOZFqkwzp0-169" vertex="1">
          <mxGeometry x="30" width="220" height="20" as="geometry">
            <mxRectangle width="220" height="20" as="alternateBounds" />
          </mxGeometry>
        </mxCell>
        <mxCell id="Gc8rLELLxfOOZFqkwzp0-172" value="" style="shape=partialRectangle;collapsible=0;dropTarget=0;pointerEvents=0;fillColor=none;points=[[0,0.5],[1,0.5]];portConstraint=eastwest;top=0;left=0;right=0;bottom=0;" parent="Gc8rLELLxfOOZFqkwzp0-168" vertex="1">
          <mxGeometry y="50" width="250" height="160" as="geometry" />
        </mxCell>
        <mxCell id="Gc8rLELLxfOOZFqkwzp0-173" value="" style="shape=partialRectangle;overflow=hidden;connectable=0;fillColor=none;top=0;left=0;bottom=0;right=0;" parent="Gc8rLELLxfOOZFqkwzp0-172" vertex="1">
          <mxGeometry width="30" height="160" as="geometry">
            <mxRectangle width="30" height="160" as="alternateBounds" />
          </mxGeometry>
        </mxCell>
        <mxCell id="Gc8rLELLxfOOZFqkwzp0-174" value="" style="shape=partialRectangle;overflow=hidden;connectable=0;fillColor=none;top=0;left=0;bottom=0;right=0;align=left;spacingLeft=6;" parent="Gc8rLELLxfOOZFqkwzp0-172" vertex="1">
          <mxGeometry x="30" width="220" height="160" as="geometry">
            <mxRectangle width="220" height="160" as="alternateBounds" />
          </mxGeometry>
        </mxCell>
        <mxCell id="Gc8rLELLxfOOZFqkwzp0-176" value="Application" style="shape=table;startSize=30;container=1;collapsible=1;childLayout=tableLayout;fixedRows=1;rowLines=0;fontStyle=1;align=center;resizeLast=1;" parent="1" vertex="1">
          <mxGeometry x="2560" y="300" width="250" height="130" as="geometry" />
        </mxCell>
        <mxCell id="Gc8rLELLxfOOZFqkwzp0-177" value="" style="shape=partialRectangle;collapsible=0;dropTarget=0;pointerEvents=0;fillColor=none;points=[[0,0.5],[1,0.5]];portConstraint=eastwest;top=0;left=0;right=0;bottom=1;" parent="Gc8rLELLxfOOZFqkwzp0-176" vertex="1">
          <mxGeometry y="30" width="250" height="20" as="geometry" />
        </mxCell>
        <mxCell id="Gc8rLELLxfOOZFqkwzp0-178" value="" style="shape=partialRectangle;overflow=hidden;connectable=0;fillColor=none;top=0;left=0;bottom=0;right=0;fontStyle=1;" parent="Gc8rLELLxfOOZFqkwzp0-177" vertex="1">
          <mxGeometry width="30" height="20" as="geometry">
            <mxRectangle width="30" height="20" as="alternateBounds" />
          </mxGeometry>
        </mxCell>
        <mxCell id="Gc8rLELLxfOOZFqkwzp0-179" value="" style="shape=partialRectangle;overflow=hidden;connectable=0;fillColor=none;top=0;left=0;bottom=0;right=0;align=left;spacingLeft=6;fontStyle=5;" parent="Gc8rLELLxfOOZFqkwzp0-177" vertex="1">
          <mxGeometry x="30" width="220" height="20" as="geometry">
            <mxRectangle width="220" height="20" as="alternateBounds" />
          </mxGeometry>
        </mxCell>
        <mxCell id="Gc8rLELLxfOOZFqkwzp0-180" value="" style="shape=partialRectangle;collapsible=0;dropTarget=0;pointerEvents=0;fillColor=none;points=[[0,0.5],[1,0.5]];portConstraint=eastwest;top=0;left=0;right=0;bottom=0;" parent="Gc8rLELLxfOOZFqkwzp0-176" vertex="1">
          <mxGeometry y="50" width="250" height="80" as="geometry" />
        </mxCell>
        <mxCell id="Gc8rLELLxfOOZFqkwzp0-181" value="" style="shape=partialRectangle;overflow=hidden;connectable=0;fillColor=none;top=0;left=0;bottom=0;right=0;" parent="Gc8rLELLxfOOZFqkwzp0-180" vertex="1">
          <mxGeometry width="30" height="80" as="geometry">
            <mxRectangle width="30" height="80" as="alternateBounds" />
          </mxGeometry>
        </mxCell>
        <mxCell id="Gc8rLELLxfOOZFqkwzp0-182" value="" style="shape=partialRectangle;overflow=hidden;connectable=0;fillColor=none;top=0;left=0;bottom=0;right=0;align=left;spacingLeft=6;" parent="Gc8rLELLxfOOZFqkwzp0-180" vertex="1">
          <mxGeometry x="30" width="220" height="80" as="geometry">
            <mxRectangle width="220" height="80" as="alternateBounds" />
          </mxGeometry>
        </mxCell>
        <mxCell id="Gc8rLELLxfOOZFqkwzp0-183" style="edgeStyle=orthogonalEdgeStyle;rounded=0;orthogonalLoop=1;jettySize=auto;html=1;entryX=0;entryY=0.5;entryDx=0;entryDy=0;endArrow=none;endFill=0;" parent="1" source="Gc8rLELLxfOOZFqkwzp0-172" target="Gc8rLELLxfOOZFqkwzp0-180" edge="1">
          <mxGeometry relative="1" as="geometry" />
        </mxCell>
        <mxCell id="Gc8rLELLxfOOZFqkwzp0-184" value="Reporting Agent" style="shape=table;startSize=30;container=1;collapsible=1;childLayout=tableLayout;fixedRows=1;rowLines=0;fontStyle=1;align=center;resizeLast=1;" parent="1" vertex="1">
          <mxGeometry x="2170" y="520" width="250" height="130" as="geometry" />
        </mxCell>
        <mxCell id="Gc8rLELLxfOOZFqkwzp0-185" value="" style="shape=partialRectangle;collapsible=0;dropTarget=0;pointerEvents=0;fillColor=none;points=[[0,0.5],[1,0.5]];portConstraint=eastwest;top=0;left=0;right=0;bottom=1;" parent="Gc8rLELLxfOOZFqkwzp0-184" vertex="1">
          <mxGeometry y="30" width="250" height="20" as="geometry" />
        </mxCell>
        <mxCell id="Gc8rLELLxfOOZFqkwzp0-186" value="" style="shape=partialRectangle;overflow=hidden;connectable=0;fillColor=none;top=0;left=0;bottom=0;right=0;fontStyle=1;" parent="Gc8rLELLxfOOZFqkwzp0-185" vertex="1">
          <mxGeometry width="30" height="20" as="geometry">
            <mxRectangle width="30" height="20" as="alternateBounds" />
          </mxGeometry>
        </mxCell>
        <mxCell id="Gc8rLELLxfOOZFqkwzp0-187" value="" style="shape=partialRectangle;overflow=hidden;connectable=0;fillColor=none;top=0;left=0;bottom=0;right=0;align=left;spacingLeft=6;fontStyle=5;" parent="Gc8rLELLxfOOZFqkwzp0-185" vertex="1">
          <mxGeometry x="30" width="220" height="20" as="geometry">
            <mxRectangle width="220" height="20" as="alternateBounds" />
          </mxGeometry>
        </mxCell>
        <mxCell id="Gc8rLELLxfOOZFqkwzp0-188" value="" style="shape=partialRectangle;collapsible=0;dropTarget=0;pointerEvents=0;fillColor=none;points=[[0,0.5],[1,0.5]];portConstraint=eastwest;top=0;left=0;right=0;bottom=0;" parent="Gc8rLELLxfOOZFqkwzp0-184" vertex="1">
          <mxGeometry y="50" width="250" height="80" as="geometry" />
        </mxCell>
        <mxCell id="Gc8rLELLxfOOZFqkwzp0-189" value="" style="shape=partialRectangle;overflow=hidden;connectable=0;fillColor=none;top=0;left=0;bottom=0;right=0;" parent="Gc8rLELLxfOOZFqkwzp0-188" vertex="1">
          <mxGeometry width="30" height="80" as="geometry">
            <mxRectangle width="30" height="80" as="alternateBounds" />
          </mxGeometry>
        </mxCell>
        <mxCell id="Gc8rLELLxfOOZFqkwzp0-190" value="" style="shape=partialRectangle;overflow=hidden;connectable=0;fillColor=none;top=0;left=0;bottom=0;right=0;align=left;spacingLeft=6;" parent="Gc8rLELLxfOOZFqkwzp0-188" vertex="1">
          <mxGeometry x="30" width="220" height="80" as="geometry">
            <mxRectangle width="220" height="80" as="alternateBounds" />
          </mxGeometry>
        </mxCell>
        <mxCell id="Gc8rLELLxfOOZFqkwzp0-192" value="Application Event" style="shape=table;startSize=30;container=1;collapsible=1;childLayout=tableLayout;fixedRows=1;rowLines=0;fontStyle=1;align=center;resizeLast=1;" parent="1" vertex="1">
          <mxGeometry x="2560" y="560" width="250" height="130" as="geometry" />
        </mxCell>
        <mxCell id="Gc8rLELLxfOOZFqkwzp0-193" value="" style="shape=partialRectangle;collapsible=0;dropTarget=0;pointerEvents=0;fillColor=none;points=[[0,0.5],[1,0.5]];portConstraint=eastwest;top=0;left=0;right=0;bottom=1;" parent="Gc8rLELLxfOOZFqkwzp0-192" vertex="1">
          <mxGeometry y="30" width="250" height="20" as="geometry" />
        </mxCell>
        <mxCell id="Gc8rLELLxfOOZFqkwzp0-194" value="" style="shape=partialRectangle;overflow=hidden;connectable=0;fillColor=none;top=0;left=0;bottom=0;right=0;fontStyle=1;" parent="Gc8rLELLxfOOZFqkwzp0-193" vertex="1">
          <mxGeometry width="30" height="20" as="geometry">
            <mxRectangle width="30" height="20" as="alternateBounds" />
          </mxGeometry>
        </mxCell>
        <mxCell id="Gc8rLELLxfOOZFqkwzp0-195" value="" style="shape=partialRectangle;overflow=hidden;connectable=0;fillColor=none;top=0;left=0;bottom=0;right=0;align=left;spacingLeft=6;fontStyle=5;" parent="Gc8rLELLxfOOZFqkwzp0-193" vertex="1">
          <mxGeometry x="30" width="220" height="20" as="geometry">
            <mxRectangle width="220" height="20" as="alternateBounds" />
          </mxGeometry>
        </mxCell>
        <mxCell id="Gc8rLELLxfOOZFqkwzp0-196" value="" style="shape=partialRectangle;collapsible=0;dropTarget=0;pointerEvents=0;fillColor=none;points=[[0,0.5],[1,0.5]];portConstraint=eastwest;top=0;left=0;right=0;bottom=0;" parent="Gc8rLELLxfOOZFqkwzp0-192" vertex="1">
          <mxGeometry y="50" width="250" height="80" as="geometry" />
        </mxCell>
        <mxCell id="Gc8rLELLxfOOZFqkwzp0-197" value="" style="shape=partialRectangle;overflow=hidden;connectable=0;fillColor=none;top=0;left=0;bottom=0;right=0;" parent="Gc8rLELLxfOOZFqkwzp0-196" vertex="1">
          <mxGeometry width="30" height="80" as="geometry">
            <mxRectangle width="30" height="80" as="alternateBounds" />
          </mxGeometry>
        </mxCell>
        <mxCell id="Gc8rLELLxfOOZFqkwzp0-198" value="" style="shape=partialRectangle;overflow=hidden;connectable=0;fillColor=none;top=0;left=0;bottom=0;right=0;align=left;spacingLeft=6;" parent="Gc8rLELLxfOOZFqkwzp0-196" vertex="1">
          <mxGeometry x="30" width="220" height="80" as="geometry">
            <mxRectangle width="220" height="80" as="alternateBounds" />
          </mxGeometry>
        </mxCell>
        <mxCell id="Gc8rLELLxfOOZFqkwzp0-199" value="Health Event" style="shape=table;startSize=30;container=1;collapsible=1;childLayout=tableLayout;fixedRows=1;rowLines=0;fontStyle=1;align=center;resizeLast=1;" parent="1" vertex="1">
          <mxGeometry x="1840" y="600" width="250" height="130" as="geometry" />
        </mxCell>
        <mxCell id="Gc8rLELLxfOOZFqkwzp0-200" value="" style="shape=partialRectangle;collapsible=0;dropTarget=0;pointerEvents=0;fillColor=none;points=[[0,0.5],[1,0.5]];portConstraint=eastwest;top=0;left=0;right=0;bottom=1;" parent="Gc8rLELLxfOOZFqkwzp0-199" vertex="1">
          <mxGeometry y="30" width="250" height="20" as="geometry" />
        </mxCell>
        <mxCell id="Gc8rLELLxfOOZFqkwzp0-201" value="" style="shape=partialRectangle;overflow=hidden;connectable=0;fillColor=none;top=0;left=0;bottom=0;right=0;fontStyle=1;" parent="Gc8rLELLxfOOZFqkwzp0-200" vertex="1">
          <mxGeometry width="30" height="20" as="geometry">
            <mxRectangle width="30" height="20" as="alternateBounds" />
          </mxGeometry>
        </mxCell>
        <mxCell id="Gc8rLELLxfOOZFqkwzp0-202" value="" style="shape=partialRectangle;overflow=hidden;connectable=0;fillColor=none;top=0;left=0;bottom=0;right=0;align=left;spacingLeft=6;fontStyle=5;" parent="Gc8rLELLxfOOZFqkwzp0-200" vertex="1">
          <mxGeometry x="30" width="220" height="20" as="geometry">
            <mxRectangle width="220" height="20" as="alternateBounds" />
          </mxGeometry>
        </mxCell>
        <mxCell id="Gc8rLELLxfOOZFqkwzp0-203" value="" style="shape=partialRectangle;collapsible=0;dropTarget=0;pointerEvents=0;fillColor=none;points=[[0,0.5],[1,0.5]];portConstraint=eastwest;top=0;left=0;right=0;bottom=0;" parent="Gc8rLELLxfOOZFqkwzp0-199" vertex="1">
          <mxGeometry y="50" width="250" height="80" as="geometry" />
        </mxCell>
        <mxCell id="Gc8rLELLxfOOZFqkwzp0-204" value="" style="shape=partialRectangle;overflow=hidden;connectable=0;fillColor=none;top=0;left=0;bottom=0;right=0;" parent="Gc8rLELLxfOOZFqkwzp0-203" vertex="1">
          <mxGeometry width="30" height="80" as="geometry">
            <mxRectangle width="30" height="80" as="alternateBounds" />
          </mxGeometry>
        </mxCell>
        <mxCell id="Gc8rLELLxfOOZFqkwzp0-205" value="" style="shape=partialRectangle;overflow=hidden;connectable=0;fillColor=none;top=0;left=0;bottom=0;right=0;align=left;spacingLeft=6;" parent="Gc8rLELLxfOOZFqkwzp0-203" vertex="1">
          <mxGeometry x="30" width="220" height="80" as="geometry">
            <mxRectangle width="220" height="80" as="alternateBounds" />
          </mxGeometry>
        </mxCell>
        <mxCell id="Gc8rLELLxfOOZFqkwzp0-206" style="edgeStyle=orthogonalEdgeStyle;rounded=0;orthogonalLoop=1;jettySize=auto;html=1;entryX=0.5;entryY=0;entryDx=0;entryDy=0;endArrow=none;endFill=0;" parent="1" source="Gc8rLELLxfOOZFqkwzp0-172" target="Gc8rLELLxfOOZFqkwzp0-199" edge="1">
          <mxGeometry relative="1" as="geometry">
            <Array as="points">
              <mxPoint x="1960" y="440" />
              <mxPoint x="1960" y="600" />
            </Array>
          </mxGeometry>
        </mxCell>
        <mxCell id="Gc8rLELLxfOOZFqkwzp0-209" value="" style="rounded=1;whiteSpace=wrap;html=1;fillColor=none;dashed=1;strokeColor=#33FF33;strokeWidth=2;arcSize=6;" parent="1" vertex="1">
          <mxGeometry x="1500" y="-40" width="1540" height="810" as="geometry" />
        </mxCell>
        <mxCell id="Gc8rLELLxfOOZFqkwzp0-210" value="&lt;font color=&quot;#166e16&quot; style=&quot;font-size: 17px;&quot;&gt;DEM&lt;/font&gt;" style="text;html=1;strokeColor=none;fillColor=none;align=center;verticalAlign=middle;whiteSpace=wrap;rounded=0;" parent="1" vertex="1">
          <mxGeometry x="1580" y="-30" width="60" height="30" as="geometry" />
        </mxCell>
        <mxCell id="Gc8rLELLxfOOZFqkwzp0-212" value="" style="rounded=1;whiteSpace=wrap;html=1;fillColor=none;dashed=1;strokeColor=#FF8000;strokeWidth=2;arcSize=5;" parent="1" vertex="1">
          <mxGeometry x="20" y="390" width="1800" height="1070" as="geometry" />
        </mxCell>
        <mxCell id="Gc8rLELLxfOOZFqkwzp0-213" value="&lt;font color=&quot;#ff8000&quot; style=&quot;font-size: 15px;&quot;&gt;XLA&lt;/font&gt;" style="text;html=1;strokeColor=none;fillColor=none;align=center;verticalAlign=middle;whiteSpace=wrap;rounded=0;" parent="1" vertex="1">
          <mxGeometry x="130" y="410" width="60" height="30" as="geometry" />
        </mxCell>
        <mxCell id="Gc8rLELLxfOOZFqkwzp0-214" value="" style="rounded=1;whiteSpace=wrap;html=1;fillColor=none;strokeColor=#2129FF;dashed=1;strokeWidth=2;arcSize=5;" parent="1" vertex="1">
          <mxGeometry x="400" y="-770" width="1550" height="690" as="geometry" />
        </mxCell>
        <mxCell id="Gc8rLELLxfOOZFqkwzp0-215" value="&lt;font color=&quot;#2129ff&quot; style=&quot;font-size: 16px;&quot;&gt;ITSM&lt;/font&gt;" style="text;html=1;strokeColor=none;fillColor=none;align=center;verticalAlign=middle;whiteSpace=wrap;rounded=0;" parent="1" vertex="1">
          <mxGeometry x="470" y="-740" width="60" height="30" as="geometry" />
        </mxCell>
        <mxCell id="Gc8rLELLxfOOZFqkwzp0-223" style="edgeStyle=orthogonalEdgeStyle;rounded=0;orthogonalLoop=1;jettySize=auto;html=1;entryX=0.472;entryY=-0.015;entryDx=0;entryDy=0;endArrow=none;endFill=0;entryPerimeter=0;" parent="1" source="Gc8rLELLxfOOZFqkwzp0-216" target="Gc8rLELLxfOOZFqkwzp0-152" edge="1">
          <mxGeometry relative="1" as="geometry">
            <Array as="points">
              <mxPoint x="1280" y="50" />
              <mxPoint x="1258" y="50" />
            </Array>
          </mxGeometry>
        </mxCell>
        <mxCell id="Gc8rLELLxfOOZFqkwzp0-216" value="Ticket" style="shape=table;startSize=30;container=1;collapsible=1;childLayout=tableLayout;fixedRows=1;rowLines=0;fontStyle=1;align=center;resizeLast=1;" parent="1" vertex="1">
          <mxGeometry x="1160" y="-280" width="250" height="150" as="geometry" />
        </mxCell>
        <mxCell id="Gc8rLELLxfOOZFqkwzp0-217" value="" style="shape=partialRectangle;collapsible=0;dropTarget=0;pointerEvents=0;fillColor=none;points=[[0,0.5],[1,0.5]];portConstraint=eastwest;top=0;left=0;right=0;bottom=1;" parent="Gc8rLELLxfOOZFqkwzp0-216" vertex="1">
          <mxGeometry y="30" width="250" height="20" as="geometry" />
        </mxCell>
        <mxCell id="Gc8rLELLxfOOZFqkwzp0-218" value="" style="shape=partialRectangle;overflow=hidden;connectable=0;fillColor=none;top=0;left=0;bottom=0;right=0;fontStyle=1;" parent="Gc8rLELLxfOOZFqkwzp0-217" vertex="1">
          <mxGeometry width="30" height="20" as="geometry">
            <mxRectangle width="30" height="20" as="alternateBounds" />
          </mxGeometry>
        </mxCell>
        <mxCell id="Gc8rLELLxfOOZFqkwzp0-219" value="" style="shape=partialRectangle;overflow=hidden;connectable=0;fillColor=none;top=0;left=0;bottom=0;right=0;align=left;spacingLeft=6;fontStyle=5;" parent="Gc8rLELLxfOOZFqkwzp0-217" vertex="1">
          <mxGeometry x="30" width="220" height="20" as="geometry">
            <mxRectangle width="220" height="20" as="alternateBounds" />
          </mxGeometry>
        </mxCell>
        <mxCell id="Gc8rLELLxfOOZFqkwzp0-220" value="" style="shape=partialRectangle;collapsible=0;dropTarget=0;pointerEvents=0;fillColor=none;points=[[0,0.5],[1,0.5]];portConstraint=eastwest;top=0;left=0;right=0;bottom=0;" parent="Gc8rLELLxfOOZFqkwzp0-216" vertex="1">
          <mxGeometry y="50" width="250" height="100" as="geometry" />
        </mxCell>
        <mxCell id="Gc8rLELLxfOOZFqkwzp0-221" value="" style="shape=partialRectangle;overflow=hidden;connectable=0;fillColor=none;top=0;left=0;bottom=0;right=0;" parent="Gc8rLELLxfOOZFqkwzp0-220" vertex="1">
          <mxGeometry width="30" height="100" as="geometry">
            <mxRectangle width="30" height="100" as="alternateBounds" />
          </mxGeometry>
        </mxCell>
        <mxCell id="Gc8rLELLxfOOZFqkwzp0-222" value="" style="shape=partialRectangle;overflow=hidden;connectable=0;fillColor=none;top=0;left=0;bottom=0;right=0;align=left;spacingLeft=6;" parent="Gc8rLELLxfOOZFqkwzp0-220" vertex="1">
          <mxGeometry x="30" width="220" height="100" as="geometry">
            <mxRectangle width="220" height="100" as="alternateBounds" />
          </mxGeometry>
        </mxCell>
        <mxCell id="Gc8rLELLxfOOZFqkwzp0-231" style="edgeStyle=orthogonalEdgeStyle;rounded=0;orthogonalLoop=1;jettySize=auto;html=1;endArrow=none;endFill=0;" parent="1" source="Gc8rLELLxfOOZFqkwzp0-224" target="Gc8rLELLxfOOZFqkwzp0-216" edge="1">
          <mxGeometry relative="1" as="geometry">
            <Array as="points">
              <mxPoint x="1280" y="-310" />
              <mxPoint x="1280" y="-310" />
            </Array>
          </mxGeometry>
        </mxCell>
        <mxCell id="Gc8rLELLxfOOZFqkwzp0-224" value="Problem/Issue" style="shape=table;startSize=30;container=1;collapsible=1;childLayout=tableLayout;fixedRows=1;rowLines=0;fontStyle=1;align=center;resizeLast=1;" parent="1" vertex="1">
          <mxGeometry x="1150" y="-520" width="250" height="130" as="geometry" />
        </mxCell>
        <mxCell id="Gc8rLELLxfOOZFqkwzp0-225" value="" style="shape=partialRectangle;collapsible=0;dropTarget=0;pointerEvents=0;fillColor=none;points=[[0,0.5],[1,0.5]];portConstraint=eastwest;top=0;left=0;right=0;bottom=1;" parent="Gc8rLELLxfOOZFqkwzp0-224" vertex="1">
          <mxGeometry y="30" width="250" height="20" as="geometry" />
        </mxCell>
        <mxCell id="Gc8rLELLxfOOZFqkwzp0-226" value="" style="shape=partialRectangle;overflow=hidden;connectable=0;fillColor=none;top=0;left=0;bottom=0;right=0;fontStyle=1;" parent="Gc8rLELLxfOOZFqkwzp0-225" vertex="1">
          <mxGeometry width="30" height="20" as="geometry">
            <mxRectangle width="30" height="20" as="alternateBounds" />
          </mxGeometry>
        </mxCell>
        <mxCell id="Gc8rLELLxfOOZFqkwzp0-227" value="" style="shape=partialRectangle;overflow=hidden;connectable=0;fillColor=none;top=0;left=0;bottom=0;right=0;align=left;spacingLeft=6;fontStyle=5;" parent="Gc8rLELLxfOOZFqkwzp0-225" vertex="1">
          <mxGeometry x="30" width="220" height="20" as="geometry">
            <mxRectangle width="220" height="20" as="alternateBounds" />
          </mxGeometry>
        </mxCell>
        <mxCell id="Gc8rLELLxfOOZFqkwzp0-228" value="" style="shape=partialRectangle;collapsible=0;dropTarget=0;pointerEvents=0;fillColor=none;points=[[0,0.5],[1,0.5]];portConstraint=eastwest;top=0;left=0;right=0;bottom=0;" parent="Gc8rLELLxfOOZFqkwzp0-224" vertex="1">
          <mxGeometry y="50" width="250" height="80" as="geometry" />
        </mxCell>
        <mxCell id="Gc8rLELLxfOOZFqkwzp0-229" value="" style="shape=partialRectangle;overflow=hidden;connectable=0;fillColor=none;top=0;left=0;bottom=0;right=0;" parent="Gc8rLELLxfOOZFqkwzp0-228" vertex="1">
          <mxGeometry width="30" height="80" as="geometry">
            <mxRectangle width="30" height="80" as="alternateBounds" />
          </mxGeometry>
        </mxCell>
        <mxCell id="Gc8rLELLxfOOZFqkwzp0-230" value="" style="shape=partialRectangle;overflow=hidden;connectable=0;fillColor=none;top=0;left=0;bottom=0;right=0;align=left;spacingLeft=6;" parent="Gc8rLELLxfOOZFqkwzp0-228" vertex="1">
          <mxGeometry x="30" width="220" height="80" as="geometry">
            <mxRectangle width="220" height="80" as="alternateBounds" />
          </mxGeometry>
        </mxCell>
        <mxCell id="Gc8rLELLxfOOZFqkwzp0-244" style="edgeStyle=orthogonalEdgeStyle;rounded=0;orthogonalLoop=1;jettySize=auto;html=1;endArrow=none;endFill=0;entryX=0.88;entryY=0;entryDx=0;entryDy=0;entryPerimeter=0;" parent="1" source="Gc8rLELLxfOOZFqkwzp0-232" target="Gc8rLELLxfOOZFqkwzp0-216" edge="1">
          <mxGeometry relative="1" as="geometry">
            <mxPoint x="1440" y="-219" as="targetPoint" />
            <Array as="points">
              <mxPoint x="1660" y="-320" />
              <mxPoint x="1380" y="-320" />
            </Array>
          </mxGeometry>
        </mxCell>
        <mxCell id="Gc8rLELLxfOOZFqkwzp0-232" value="Correspondance" style="shape=table;startSize=30;container=1;collapsible=1;childLayout=tableLayout;fixedRows=1;rowLines=0;fontStyle=1;align=center;resizeLast=1;" parent="1" vertex="1">
          <mxGeometry x="1560" y="-520" width="250" height="130" as="geometry" />
        </mxCell>
        <mxCell id="Gc8rLELLxfOOZFqkwzp0-233" value="" style="shape=partialRectangle;collapsible=0;dropTarget=0;pointerEvents=0;fillColor=none;points=[[0,0.5],[1,0.5]];portConstraint=eastwest;top=0;left=0;right=0;bottom=1;" parent="Gc8rLELLxfOOZFqkwzp0-232" vertex="1">
          <mxGeometry y="30" width="250" height="20" as="geometry" />
        </mxCell>
        <mxCell id="Gc8rLELLxfOOZFqkwzp0-234" value="" style="shape=partialRectangle;overflow=hidden;connectable=0;fillColor=none;top=0;left=0;bottom=0;right=0;fontStyle=1;" parent="Gc8rLELLxfOOZFqkwzp0-233" vertex="1">
          <mxGeometry width="30" height="20" as="geometry">
            <mxRectangle width="30" height="20" as="alternateBounds" />
          </mxGeometry>
        </mxCell>
        <mxCell id="Gc8rLELLxfOOZFqkwzp0-235" value="" style="shape=partialRectangle;overflow=hidden;connectable=0;fillColor=none;top=0;left=0;bottom=0;right=0;align=left;spacingLeft=6;fontStyle=5;" parent="Gc8rLELLxfOOZFqkwzp0-233" vertex="1">
          <mxGeometry x="30" width="220" height="20" as="geometry">
            <mxRectangle width="220" height="20" as="alternateBounds" />
          </mxGeometry>
        </mxCell>
        <mxCell id="Gc8rLELLxfOOZFqkwzp0-236" value="" style="shape=partialRectangle;collapsible=0;dropTarget=0;pointerEvents=0;fillColor=none;points=[[0,0.5],[1,0.5]];portConstraint=eastwest;top=0;left=0;right=0;bottom=0;" parent="Gc8rLELLxfOOZFqkwzp0-232" vertex="1">
          <mxGeometry y="50" width="250" height="80" as="geometry" />
        </mxCell>
        <mxCell id="Gc8rLELLxfOOZFqkwzp0-237" value="" style="shape=partialRectangle;overflow=hidden;connectable=0;fillColor=none;top=0;left=0;bottom=0;right=0;" parent="Gc8rLELLxfOOZFqkwzp0-236" vertex="1">
          <mxGeometry width="30" height="80" as="geometry">
            <mxRectangle width="30" height="80" as="alternateBounds" />
          </mxGeometry>
        </mxCell>
        <mxCell id="Gc8rLELLxfOOZFqkwzp0-238" value="" style="shape=partialRectangle;overflow=hidden;connectable=0;fillColor=none;top=0;left=0;bottom=0;right=0;align=left;spacingLeft=6;" parent="Gc8rLELLxfOOZFqkwzp0-236" vertex="1">
          <mxGeometry x="30" width="220" height="80" as="geometry">
            <mxRectangle width="220" height="80" as="alternateBounds" />
          </mxGeometry>
        </mxCell>
        <mxCell id="Gc8rLELLxfOOZFqkwzp0-252" style="edgeStyle=orthogonalEdgeStyle;rounded=0;orthogonalLoop=1;jettySize=auto;html=1;entryX=0.5;entryY=0;entryDx=0;entryDy=0;endArrow=none;endFill=0;" parent="1" source="Gc8rLELLxfOOZFqkwzp0-245" target="Gc8rLELLxfOOZFqkwzp0-224" edge="1">
          <mxGeometry relative="1" as="geometry">
            <Array as="points">
              <mxPoint x="1280" y="-520" />
            </Array>
          </mxGeometry>
        </mxCell>
        <mxCell id="Gc8rLELLxfOOZFqkwzp0-245" value="Resolution" style="shape=table;startSize=30;container=1;collapsible=1;childLayout=tableLayout;fixedRows=1;rowLines=0;fontStyle=1;align=center;resizeLast=1;" parent="1" vertex="1">
          <mxGeometry x="1150" y="-730" width="250" height="130" as="geometry" />
        </mxCell>
        <mxCell id="Gc8rLELLxfOOZFqkwzp0-246" value="" style="shape=partialRectangle;collapsible=0;dropTarget=0;pointerEvents=0;fillColor=none;points=[[0,0.5],[1,0.5]];portConstraint=eastwest;top=0;left=0;right=0;bottom=1;" parent="Gc8rLELLxfOOZFqkwzp0-245" vertex="1">
          <mxGeometry y="30" width="250" height="20" as="geometry" />
        </mxCell>
        <mxCell id="Gc8rLELLxfOOZFqkwzp0-247" value="" style="shape=partialRectangle;overflow=hidden;connectable=0;fillColor=none;top=0;left=0;bottom=0;right=0;fontStyle=1;" parent="Gc8rLELLxfOOZFqkwzp0-246" vertex="1">
          <mxGeometry width="30" height="20" as="geometry">
            <mxRectangle width="30" height="20" as="alternateBounds" />
          </mxGeometry>
        </mxCell>
        <mxCell id="Gc8rLELLxfOOZFqkwzp0-248" value="" style="shape=partialRectangle;overflow=hidden;connectable=0;fillColor=none;top=0;left=0;bottom=0;right=0;align=left;spacingLeft=6;fontStyle=5;" parent="Gc8rLELLxfOOZFqkwzp0-246" vertex="1">
          <mxGeometry x="30" width="220" height="20" as="geometry">
            <mxRectangle width="220" height="20" as="alternateBounds" />
          </mxGeometry>
        </mxCell>
        <mxCell id="Gc8rLELLxfOOZFqkwzp0-249" value="" style="shape=partialRectangle;collapsible=0;dropTarget=0;pointerEvents=0;fillColor=none;points=[[0,0.5],[1,0.5]];portConstraint=eastwest;top=0;left=0;right=0;bottom=0;" parent="Gc8rLELLxfOOZFqkwzp0-245" vertex="1">
          <mxGeometry y="50" width="250" height="80" as="geometry" />
        </mxCell>
        <mxCell id="Gc8rLELLxfOOZFqkwzp0-250" value="" style="shape=partialRectangle;overflow=hidden;connectable=0;fillColor=none;top=0;left=0;bottom=0;right=0;" parent="Gc8rLELLxfOOZFqkwzp0-249" vertex="1">
          <mxGeometry width="30" height="80" as="geometry">
            <mxRectangle width="30" height="80" as="alternateBounds" />
          </mxGeometry>
        </mxCell>
        <mxCell id="Gc8rLELLxfOOZFqkwzp0-251" value="" style="shape=partialRectangle;overflow=hidden;connectable=0;fillColor=none;top=0;left=0;bottom=0;right=0;align=left;spacingLeft=6;" parent="Gc8rLELLxfOOZFqkwzp0-249" vertex="1">
          <mxGeometry x="30" width="220" height="80" as="geometry">
            <mxRectangle width="220" height="80" as="alternateBounds" />
          </mxGeometry>
        </mxCell>
        <mxCell id="Gc8rLELLxfOOZFqkwzp0-260" style="edgeStyle=orthogonalEdgeStyle;rounded=0;orthogonalLoop=1;jettySize=auto;html=1;endArrow=none;endFill=0;" parent="1" source="Gc8rLELLxfOOZFqkwzp0-253" edge="1">
          <mxGeometry relative="1" as="geometry">
            <mxPoint x="1160" y="-200" as="targetPoint" />
            <Array as="points">
              <mxPoint x="1100" y="-535" />
              <mxPoint x="1100" y="-200" />
              <mxPoint x="1161" y="-200" />
            </Array>
          </mxGeometry>
        </mxCell>
        <mxCell id="Gc8rLELLxfOOZFqkwzp0-321" style="edgeStyle=orthogonalEdgeStyle;rounded=0;orthogonalLoop=1;jettySize=auto;html=1;entryX=0.432;entryY=0.021;entryDx=0;entryDy=0;entryPerimeter=0;endArrow=none;endFill=0;" parent="1" source="Gc8rLELLxfOOZFqkwzp0-253" target="Gc8rLELLxfOOZFqkwzp0-313" edge="1">
          <mxGeometry relative="1" as="geometry" />
        </mxCell>
        <mxCell id="Gc8rLELLxfOOZFqkwzp0-253" value="Knowledge Domain" style="shape=table;startSize=30;container=1;collapsible=1;childLayout=tableLayout;fixedRows=1;rowLines=0;fontStyle=1;align=center;resizeLast=1;" parent="1" vertex="1">
          <mxGeometry x="760" y="-600" width="250" height="130" as="geometry" />
        </mxCell>
        <mxCell id="Gc8rLELLxfOOZFqkwzp0-254" value="" style="shape=partialRectangle;collapsible=0;dropTarget=0;pointerEvents=0;fillColor=none;points=[[0,0.5],[1,0.5]];portConstraint=eastwest;top=0;left=0;right=0;bottom=1;" parent="Gc8rLELLxfOOZFqkwzp0-253" vertex="1">
          <mxGeometry y="30" width="250" height="20" as="geometry" />
        </mxCell>
        <mxCell id="Gc8rLELLxfOOZFqkwzp0-255" value="" style="shape=partialRectangle;overflow=hidden;connectable=0;fillColor=none;top=0;left=0;bottom=0;right=0;fontStyle=1;" parent="Gc8rLELLxfOOZFqkwzp0-254" vertex="1">
          <mxGeometry width="30" height="20" as="geometry">
            <mxRectangle width="30" height="20" as="alternateBounds" />
          </mxGeometry>
        </mxCell>
        <mxCell id="Gc8rLELLxfOOZFqkwzp0-256" value="" style="shape=partialRectangle;overflow=hidden;connectable=0;fillColor=none;top=0;left=0;bottom=0;right=0;align=left;spacingLeft=6;fontStyle=5;" parent="Gc8rLELLxfOOZFqkwzp0-254" vertex="1">
          <mxGeometry x="30" width="220" height="20" as="geometry">
            <mxRectangle width="220" height="20" as="alternateBounds" />
          </mxGeometry>
        </mxCell>
        <mxCell id="Gc8rLELLxfOOZFqkwzp0-257" value="" style="shape=partialRectangle;collapsible=0;dropTarget=0;pointerEvents=0;fillColor=none;points=[[0,0.5],[1,0.5]];portConstraint=eastwest;top=0;left=0;right=0;bottom=0;" parent="Gc8rLELLxfOOZFqkwzp0-253" vertex="1">
          <mxGeometry y="50" width="250" height="80" as="geometry" />
        </mxCell>
        <mxCell id="Gc8rLELLxfOOZFqkwzp0-258" value="" style="shape=partialRectangle;overflow=hidden;connectable=0;fillColor=none;top=0;left=0;bottom=0;right=0;" parent="Gc8rLELLxfOOZFqkwzp0-257" vertex="1">
          <mxGeometry width="30" height="80" as="geometry">
            <mxRectangle width="30" height="80" as="alternateBounds" />
          </mxGeometry>
        </mxCell>
        <mxCell id="Gc8rLELLxfOOZFqkwzp0-259" value="" style="shape=partialRectangle;overflow=hidden;connectable=0;fillColor=none;top=0;left=0;bottom=0;right=0;align=left;spacingLeft=6;" parent="Gc8rLELLxfOOZFqkwzp0-257" vertex="1">
          <mxGeometry x="30" width="220" height="80" as="geometry">
            <mxRectangle width="220" height="80" as="alternateBounds" />
          </mxGeometry>
        </mxCell>
        <mxCell id="Gc8rLELLxfOOZFqkwzp0-261" value="Agent" style="shape=table;startSize=30;container=1;collapsible=1;childLayout=tableLayout;fixedRows=1;rowLines=0;fontStyle=1;align=center;resizeLast=1;" parent="1" vertex="1">
          <mxGeometry x="420" y="-480" width="250" height="130" as="geometry" />
        </mxCell>
        <mxCell id="Gc8rLELLxfOOZFqkwzp0-262" value="" style="shape=partialRectangle;collapsible=0;dropTarget=0;pointerEvents=0;fillColor=none;points=[[0,0.5],[1,0.5]];portConstraint=eastwest;top=0;left=0;right=0;bottom=1;" parent="Gc8rLELLxfOOZFqkwzp0-261" vertex="1">
          <mxGeometry y="30" width="250" height="20" as="geometry" />
        </mxCell>
        <mxCell id="Gc8rLELLxfOOZFqkwzp0-263" value="" style="shape=partialRectangle;overflow=hidden;connectable=0;fillColor=none;top=0;left=0;bottom=0;right=0;fontStyle=1;" parent="Gc8rLELLxfOOZFqkwzp0-262" vertex="1">
          <mxGeometry width="30" height="20" as="geometry">
            <mxRectangle width="30" height="20" as="alternateBounds" />
          </mxGeometry>
        </mxCell>
        <mxCell id="Gc8rLELLxfOOZFqkwzp0-264" value="" style="shape=partialRectangle;overflow=hidden;connectable=0;fillColor=none;top=0;left=0;bottom=0;right=0;align=left;spacingLeft=6;fontStyle=5;" parent="Gc8rLELLxfOOZFqkwzp0-262" vertex="1">
          <mxGeometry x="30" width="220" height="20" as="geometry">
            <mxRectangle width="220" height="20" as="alternateBounds" />
          </mxGeometry>
        </mxCell>
        <mxCell id="Gc8rLELLxfOOZFqkwzp0-265" value="" style="shape=partialRectangle;collapsible=0;dropTarget=0;pointerEvents=0;fillColor=none;points=[[0,0.5],[1,0.5]];portConstraint=eastwest;top=0;left=0;right=0;bottom=0;" parent="Gc8rLELLxfOOZFqkwzp0-261" vertex="1">
          <mxGeometry y="50" width="250" height="80" as="geometry" />
        </mxCell>
        <mxCell id="Gc8rLELLxfOOZFqkwzp0-266" value="" style="shape=partialRectangle;overflow=hidden;connectable=0;fillColor=none;top=0;left=0;bottom=0;right=0;" parent="Gc8rLELLxfOOZFqkwzp0-265" vertex="1">
          <mxGeometry width="30" height="80" as="geometry">
            <mxRectangle width="30" height="80" as="alternateBounds" />
          </mxGeometry>
        </mxCell>
        <mxCell id="Gc8rLELLxfOOZFqkwzp0-267" value="" style="shape=partialRectangle;overflow=hidden;connectable=0;fillColor=none;top=0;left=0;bottom=0;right=0;align=left;spacingLeft=6;" parent="Gc8rLELLxfOOZFqkwzp0-265" vertex="1">
          <mxGeometry x="30" width="220" height="80" as="geometry">
            <mxRectangle width="220" height="80" as="alternateBounds" />
          </mxGeometry>
        </mxCell>
        <mxCell id="Gc8rLELLxfOOZFqkwzp0-268" style="edgeStyle=orthogonalEdgeStyle;rounded=0;orthogonalLoop=1;jettySize=auto;html=1;endArrow=none;endFill=0;" parent="1" source="Gc8rLELLxfOOZFqkwzp0-265" edge="1">
          <mxGeometry relative="1" as="geometry">
            <mxPoint x="1161" y="-160" as="targetPoint" />
            <Array as="points">
              <mxPoint x="920" y="-390" />
              <mxPoint x="920" y="-161" />
              <mxPoint x="1161" y="-161" />
            </Array>
          </mxGeometry>
        </mxCell>
        <mxCell id="Gc8rLELLxfOOZFqkwzp0-270" value="" style="rounded=1;whiteSpace=wrap;html=1;fillColor=none;strokeColor=#7F00FF;dashed=1;strokeWidth=2;arcSize=6;" parent="1" vertex="1">
          <mxGeometry x="-840" y="-320" width="800" height="770" as="geometry" />
        </mxCell>
        <mxCell id="Gc8rLELLxfOOZFqkwzp0-278" value="&lt;font style=&quot;font-size: 17px;&quot; color=&quot;#7f00ff&quot;&gt;Virtual Assistance&lt;/font&gt;" style="text;html=1;strokeColor=none;fillColor=none;align=center;verticalAlign=middle;whiteSpace=wrap;rounded=0;" parent="1" vertex="1">
          <mxGeometry x="-780" y="-300" width="140" height="50" as="geometry" />
        </mxCell>
        <mxCell id="Gc8rLELLxfOOZFqkwzp0-279" value="Virtual Agent" style="shape=table;startSize=30;container=1;collapsible=1;childLayout=tableLayout;fixedRows=1;rowLines=0;fontStyle=1;align=center;resizeLast=1;" parent="1" vertex="1">
          <mxGeometry x="-360" width="250" height="130" as="geometry" />
        </mxCell>
        <mxCell id="Gc8rLELLxfOOZFqkwzp0-280" value="" style="shape=partialRectangle;collapsible=0;dropTarget=0;pointerEvents=0;fillColor=none;points=[[0,0.5],[1,0.5]];portConstraint=eastwest;top=0;left=0;right=0;bottom=1;" parent="Gc8rLELLxfOOZFqkwzp0-279" vertex="1">
          <mxGeometry y="30" width="250" height="20" as="geometry" />
        </mxCell>
        <mxCell id="Gc8rLELLxfOOZFqkwzp0-281" value="" style="shape=partialRectangle;overflow=hidden;connectable=0;fillColor=none;top=0;left=0;bottom=0;right=0;fontStyle=1;" parent="Gc8rLELLxfOOZFqkwzp0-280" vertex="1">
          <mxGeometry width="30" height="20" as="geometry">
            <mxRectangle width="30" height="20" as="alternateBounds" />
          </mxGeometry>
        </mxCell>
        <mxCell id="Gc8rLELLxfOOZFqkwzp0-282" value="" style="shape=partialRectangle;overflow=hidden;connectable=0;fillColor=none;top=0;left=0;bottom=0;right=0;align=left;spacingLeft=6;fontStyle=5;" parent="Gc8rLELLxfOOZFqkwzp0-280" vertex="1">
          <mxGeometry x="30" width="220" height="20" as="geometry">
            <mxRectangle width="220" height="20" as="alternateBounds" />
          </mxGeometry>
        </mxCell>
        <mxCell id="Gc8rLELLxfOOZFqkwzp0-283" value="" style="shape=partialRectangle;collapsible=0;dropTarget=0;pointerEvents=0;fillColor=none;points=[[0,0.5],[1,0.5]];portConstraint=eastwest;top=0;left=0;right=0;bottom=0;" parent="Gc8rLELLxfOOZFqkwzp0-279" vertex="1">
          <mxGeometry y="50" width="250" height="80" as="geometry" />
        </mxCell>
        <mxCell id="Gc8rLELLxfOOZFqkwzp0-284" value="" style="shape=partialRectangle;overflow=hidden;connectable=0;fillColor=none;top=0;left=0;bottom=0;right=0;" parent="Gc8rLELLxfOOZFqkwzp0-283" vertex="1">
          <mxGeometry width="30" height="80" as="geometry">
            <mxRectangle width="30" height="80" as="alternateBounds" />
          </mxGeometry>
        </mxCell>
        <mxCell id="Gc8rLELLxfOOZFqkwzp0-285" value="" style="shape=partialRectangle;overflow=hidden;connectable=0;fillColor=none;top=0;left=0;bottom=0;right=0;align=left;spacingLeft=6;" parent="Gc8rLELLxfOOZFqkwzp0-283" vertex="1">
          <mxGeometry x="30" width="220" height="80" as="geometry">
            <mxRectangle width="220" height="80" as="alternateBounds" />
          </mxGeometry>
        </mxCell>
        <mxCell id="Gc8rLELLxfOOZFqkwzp0-286" style="edgeStyle=orthogonalEdgeStyle;rounded=0;orthogonalLoop=1;jettySize=auto;html=1;endArrow=none;endFill=0;" parent="1" source="Gc8rLELLxfOOZFqkwzp0-283" target="Gc8rLELLxfOOZFqkwzp0-156" edge="1">
          <mxGeometry relative="1" as="geometry" />
        </mxCell>
        <mxCell id="Gc8rLELLxfOOZFqkwzp0-294" style="edgeStyle=orthogonalEdgeStyle;rounded=0;orthogonalLoop=1;jettySize=auto;html=1;entryX=0.48;entryY=1.008;entryDx=0;entryDy=0;entryPerimeter=0;endArrow=none;endFill=0;" parent="1" source="Gc8rLELLxfOOZFqkwzp0-287" target="Gc8rLELLxfOOZFqkwzp0-283" edge="1">
          <mxGeometry relative="1" as="geometry">
            <Array as="points">
              <mxPoint x="-240" y="190" />
              <mxPoint x="-240" y="190" />
            </Array>
          </mxGeometry>
        </mxCell>
        <mxCell id="Gc8rLELLxfOOZFqkwzp0-287" value="Session" style="shape=table;startSize=30;container=1;collapsible=1;childLayout=tableLayout;fixedRows=1;rowLines=0;fontStyle=1;align=center;resizeLast=1;" parent="1" vertex="1">
          <mxGeometry x="-360" y="200" width="250" height="130" as="geometry" />
        </mxCell>
        <mxCell id="Gc8rLELLxfOOZFqkwzp0-288" value="" style="shape=partialRectangle;collapsible=0;dropTarget=0;pointerEvents=0;fillColor=none;points=[[0,0.5],[1,0.5]];portConstraint=eastwest;top=0;left=0;right=0;bottom=1;" parent="Gc8rLELLxfOOZFqkwzp0-287" vertex="1">
          <mxGeometry y="30" width="250" height="20" as="geometry" />
        </mxCell>
        <mxCell id="Gc8rLELLxfOOZFqkwzp0-289" value="" style="shape=partialRectangle;overflow=hidden;connectable=0;fillColor=none;top=0;left=0;bottom=0;right=0;fontStyle=1;" parent="Gc8rLELLxfOOZFqkwzp0-288" vertex="1">
          <mxGeometry width="30" height="20" as="geometry">
            <mxRectangle width="30" height="20" as="alternateBounds" />
          </mxGeometry>
        </mxCell>
        <mxCell id="Gc8rLELLxfOOZFqkwzp0-290" value="" style="shape=partialRectangle;overflow=hidden;connectable=0;fillColor=none;top=0;left=0;bottom=0;right=0;align=left;spacingLeft=6;fontStyle=5;" parent="Gc8rLELLxfOOZFqkwzp0-288" vertex="1">
          <mxGeometry x="30" width="220" height="20" as="geometry">
            <mxRectangle width="220" height="20" as="alternateBounds" />
          </mxGeometry>
        </mxCell>
        <mxCell id="Gc8rLELLxfOOZFqkwzp0-291" value="" style="shape=partialRectangle;collapsible=0;dropTarget=0;pointerEvents=0;fillColor=none;points=[[0,0.5],[1,0.5]];portConstraint=eastwest;top=0;left=0;right=0;bottom=0;" parent="Gc8rLELLxfOOZFqkwzp0-287" vertex="1">
          <mxGeometry y="50" width="250" height="80" as="geometry" />
        </mxCell>
        <mxCell id="Gc8rLELLxfOOZFqkwzp0-292" value="" style="shape=partialRectangle;overflow=hidden;connectable=0;fillColor=none;top=0;left=0;bottom=0;right=0;" parent="Gc8rLELLxfOOZFqkwzp0-291" vertex="1">
          <mxGeometry width="30" height="80" as="geometry">
            <mxRectangle width="30" height="80" as="alternateBounds" />
          </mxGeometry>
        </mxCell>
        <mxCell id="Gc8rLELLxfOOZFqkwzp0-293" value="" style="shape=partialRectangle;overflow=hidden;connectable=0;fillColor=none;top=0;left=0;bottom=0;right=0;align=left;spacingLeft=6;" parent="Gc8rLELLxfOOZFqkwzp0-291" vertex="1">
          <mxGeometry x="30" width="220" height="80" as="geometry">
            <mxRectangle width="220" height="80" as="alternateBounds" />
          </mxGeometry>
        </mxCell>
        <mxCell id="Gc8rLELLxfOOZFqkwzp0-312" style="edgeStyle=orthogonalEdgeStyle;rounded=0;orthogonalLoop=1;jettySize=auto;html=1;entryX=0.483;entryY=0.992;entryDx=0;entryDy=0;entryPerimeter=0;endArrow=none;endFill=0;exitX=0;exitY=0.5;exitDx=0;exitDy=0;" parent="1" source="Gc8rLELLxfOOZFqkwzp0-291" target="Gc8rLELLxfOOZFqkwzp0-309" edge="1">
          <mxGeometry relative="1" as="geometry">
            <mxPoint x="-569.2" y="200" as="sourcePoint" />
            <Array as="points">
              <mxPoint x="-569" y="290" />
            </Array>
          </mxGeometry>
        </mxCell>
        <mxCell id="Gc8rLELLxfOOZFqkwzp0-302" style="edgeStyle=orthogonalEdgeStyle;rounded=0;orthogonalLoop=1;jettySize=auto;html=1;entryX=1;entryY=0.5;entryDx=0;entryDy=0;endArrow=none;endFill=0;" parent="1" source="Gc8rLELLxfOOZFqkwzp0-291" edge="1">
          <mxGeometry relative="1" as="geometry">
            <mxPoint x="-430" y="290" as="targetPoint" />
          </mxGeometry>
        </mxCell>
        <mxCell id="Gc8rLELLxfOOZFqkwzp0-303" style="edgeStyle=orthogonalEdgeStyle;rounded=0;orthogonalLoop=1;jettySize=auto;html=1;entryX=0.25;entryY=0;entryDx=0;entryDy=0;endArrow=none;endFill=0;" parent="1" source="Gc8rLELLxfOOZFqkwzp0-265" target="Gc8rLELLxfOOZFqkwzp0-279" edge="1">
          <mxGeometry relative="1" as="geometry">
            <Array as="points">
              <mxPoint x="-250" y="-390" />
              <mxPoint x="-250" />
            </Array>
          </mxGeometry>
        </mxCell>
        <mxCell id="Gc8rLELLxfOOZFqkwzp0-304" style="edgeStyle=orthogonalEdgeStyle;rounded=0;orthogonalLoop=1;jettySize=auto;html=1;entryX=1;entryY=0.5;entryDx=0;entryDy=0;endArrow=none;endFill=0;" parent="1" source="Gc8rLELLxfOOZFqkwzp0-220" target="Gc8rLELLxfOOZFqkwzp0-280" edge="1">
          <mxGeometry relative="1" as="geometry" />
        </mxCell>
        <mxCell id="Gc8rLELLxfOOZFqkwzp0-320" style="edgeStyle=orthogonalEdgeStyle;rounded=0;orthogonalLoop=1;jettySize=auto;html=1;endArrow=none;endFill=0;" parent="1" source="Gc8rLELLxfOOZFqkwzp0-305" target="Gc8rLELLxfOOZFqkwzp0-317" edge="1">
          <mxGeometry relative="1" as="geometry">
            <Array as="points">
              <mxPoint x="-590" y="-180" />
            </Array>
          </mxGeometry>
        </mxCell>
        <mxCell id="Gc8rLELLxfOOZFqkwzp0-305" value="Interaction" style="shape=table;startSize=30;container=1;collapsible=1;childLayout=tableLayout;fixedRows=1;rowLines=0;fontStyle=1;align=center;resizeLast=1;" parent="1" vertex="1">
          <mxGeometry x="-690" y="10" width="250" height="130" as="geometry" />
        </mxCell>
        <mxCell id="Gc8rLELLxfOOZFqkwzp0-306" value="" style="shape=partialRectangle;collapsible=0;dropTarget=0;pointerEvents=0;fillColor=none;points=[[0,0.5],[1,0.5]];portConstraint=eastwest;top=0;left=0;right=0;bottom=1;" parent="Gc8rLELLxfOOZFqkwzp0-305" vertex="1">
          <mxGeometry y="30" width="250" height="20" as="geometry" />
        </mxCell>
        <mxCell id="Gc8rLELLxfOOZFqkwzp0-307" value="" style="shape=partialRectangle;overflow=hidden;connectable=0;fillColor=none;top=0;left=0;bottom=0;right=0;fontStyle=1;" parent="Gc8rLELLxfOOZFqkwzp0-306" vertex="1">
          <mxGeometry width="30" height="20" as="geometry">
            <mxRectangle width="30" height="20" as="alternateBounds" />
          </mxGeometry>
        </mxCell>
        <mxCell id="Gc8rLELLxfOOZFqkwzp0-308" value="" style="shape=partialRectangle;overflow=hidden;connectable=0;fillColor=none;top=0;left=0;bottom=0;right=0;align=left;spacingLeft=6;fontStyle=5;" parent="Gc8rLELLxfOOZFqkwzp0-306" vertex="1">
          <mxGeometry x="30" width="220" height="20" as="geometry">
            <mxRectangle width="220" height="20" as="alternateBounds" />
          </mxGeometry>
        </mxCell>
        <mxCell id="Gc8rLELLxfOOZFqkwzp0-309" value="" style="shape=partialRectangle;collapsible=0;dropTarget=0;pointerEvents=0;fillColor=none;points=[[0,0.5],[1,0.5]];portConstraint=eastwest;top=0;left=0;right=0;bottom=0;" parent="Gc8rLELLxfOOZFqkwzp0-305" vertex="1">
          <mxGeometry y="50" width="250" height="80" as="geometry" />
        </mxCell>
        <mxCell id="Gc8rLELLxfOOZFqkwzp0-310" value="" style="shape=partialRectangle;overflow=hidden;connectable=0;fillColor=none;top=0;left=0;bottom=0;right=0;" parent="Gc8rLELLxfOOZFqkwzp0-309" vertex="1">
          <mxGeometry width="30" height="80" as="geometry">
            <mxRectangle width="30" height="80" as="alternateBounds" />
          </mxGeometry>
        </mxCell>
        <mxCell id="Gc8rLELLxfOOZFqkwzp0-311" value="" style="shape=partialRectangle;overflow=hidden;connectable=0;fillColor=none;top=0;left=0;bottom=0;right=0;align=left;spacingLeft=6;" parent="Gc8rLELLxfOOZFqkwzp0-309" vertex="1">
          <mxGeometry x="30" width="220" height="80" as="geometry">
            <mxRectangle width="220" height="80" as="alternateBounds" />
          </mxGeometry>
        </mxCell>
        <mxCell id="Gc8rLELLxfOOZFqkwzp0-313" value="Question/Answer" style="shape=table;startSize=30;container=1;collapsible=1;childLayout=tableLayout;fixedRows=1;rowLines=0;fontStyle=1;align=center;resizeLast=1;" parent="1" vertex="1">
          <mxGeometry x="-530" y="-270" width="250" height="130" as="geometry" />
        </mxCell>
        <mxCell id="Gc8rLELLxfOOZFqkwzp0-314" value="" style="shape=partialRectangle;collapsible=0;dropTarget=0;pointerEvents=0;fillColor=none;points=[[0,0.5],[1,0.5]];portConstraint=eastwest;top=0;left=0;right=0;bottom=1;" parent="Gc8rLELLxfOOZFqkwzp0-313" vertex="1">
          <mxGeometry y="30" width="250" height="20" as="geometry" />
        </mxCell>
        <mxCell id="Gc8rLELLxfOOZFqkwzp0-315" value="" style="shape=partialRectangle;overflow=hidden;connectable=0;fillColor=none;top=0;left=0;bottom=0;right=0;fontStyle=1;" parent="Gc8rLELLxfOOZFqkwzp0-314" vertex="1">
          <mxGeometry width="30" height="20" as="geometry">
            <mxRectangle width="30" height="20" as="alternateBounds" />
          </mxGeometry>
        </mxCell>
        <mxCell id="Gc8rLELLxfOOZFqkwzp0-316" value="" style="shape=partialRectangle;overflow=hidden;connectable=0;fillColor=none;top=0;left=0;bottom=0;right=0;align=left;spacingLeft=6;fontStyle=5;" parent="Gc8rLELLxfOOZFqkwzp0-314" vertex="1">
          <mxGeometry x="30" width="220" height="20" as="geometry">
            <mxRectangle width="220" height="20" as="alternateBounds" />
          </mxGeometry>
        </mxCell>
        <mxCell id="Gc8rLELLxfOOZFqkwzp0-317" value="" style="shape=partialRectangle;collapsible=0;dropTarget=0;pointerEvents=0;fillColor=none;points=[[0,0.5],[1,0.5]];portConstraint=eastwest;top=0;left=0;right=0;bottom=0;" parent="Gc8rLELLxfOOZFqkwzp0-313" vertex="1">
          <mxGeometry y="50" width="250" height="80" as="geometry" />
        </mxCell>
        <mxCell id="Gc8rLELLxfOOZFqkwzp0-318" value="" style="shape=partialRectangle;overflow=hidden;connectable=0;fillColor=none;top=0;left=0;bottom=0;right=0;" parent="Gc8rLELLxfOOZFqkwzp0-317" vertex="1">
          <mxGeometry width="30" height="80" as="geometry">
            <mxRectangle width="30" height="80" as="alternateBounds" />
          </mxGeometry>
        </mxCell>
        <mxCell id="Gc8rLELLxfOOZFqkwzp0-319" value="" style="shape=partialRectangle;overflow=hidden;connectable=0;fillColor=none;top=0;left=0;bottom=0;right=0;align=left;spacingLeft=6;" parent="Gc8rLELLxfOOZFqkwzp0-317" vertex="1">
          <mxGeometry x="30" width="220" height="80" as="geometry">
            <mxRectangle width="220" height="80" as="alternateBounds" />
          </mxGeometry>
        </mxCell>
      </root>
    </mxGraphModel>
  </diagram>
  <diagram id="zTnjFvQzl_fnS55enHM4" name="Page-2">
    <mxGraphModel dx="842" dy="468" grid="0" gridSize="10" guides="1" tooltips="1" connect="1" arrows="1" fold="1" page="0" pageScale="1" pageWidth="1100" pageHeight="850" math="0" shadow="0">
      <root>
        <mxCell id="0" />
        <mxCell id="1" parent="0" />
        <mxCell id="t5gFfkrr7vGu0fTsxDdn-17" value="conducts" style="edgeStyle=none;curved=1;rounded=0;orthogonalLoop=1;jettySize=auto;html=1;entryX=0;entryY=0.75;entryDx=0;entryDy=0;fontSize=12;startSize=8;endSize=8;fillColor=#cce5ff;strokeColor=#36393d;strokeWidth=2;shadow=0;" edge="1" parent="1" source="t5gFfkrr7vGu0fTsxDdn-1" target="t5gFfkrr7vGu0fTsxDdn-4">
          <mxGeometry relative="1" as="geometry" />
        </mxCell>
        <mxCell id="t5gFfkrr7vGu0fTsxDdn-18" value="conducts" style="edgeStyle=none;curved=1;rounded=0;orthogonalLoop=1;jettySize=auto;html=1;entryX=0;entryY=0.5;entryDx=0;entryDy=0;fontSize=12;startSize=8;endSize=8;fillColor=#cce5ff;strokeColor=#36393d;strokeWidth=2;shadow=0;" edge="1" parent="1" source="t5gFfkrr7vGu0fTsxDdn-1" target="t5gFfkrr7vGu0fTsxDdn-5">
          <mxGeometry relative="1" as="geometry" />
        </mxCell>
        <mxCell id="t5gFfkrr7vGu0fTsxDdn-22" value="has" style="edgeStyle=none;curved=1;rounded=0;orthogonalLoop=1;jettySize=auto;html=1;entryX=0;entryY=0.5;entryDx=0;entryDy=0;fontSize=12;startSize=8;endSize=8;fillColor=#cce5ff;strokeColor=#36393d;strokeWidth=2;shadow=0;" edge="1" parent="1" source="t5gFfkrr7vGu0fTsxDdn-1" target="t5gFfkrr7vGu0fTsxDdn-7">
          <mxGeometry relative="1" as="geometry" />
        </mxCell>
        <mxCell id="t5gFfkrr7vGu0fTsxDdn-1" value="A2Z Learning" style="shape=umlActor;verticalLabelPosition=bottom;verticalAlign=top;html=1;outlineConnect=0;fontSize=16;fillColor=#cce5ff;strokeColor=#36393d;strokeWidth=2;shadow=0;" vertex="1" parent="1">
          <mxGeometry x="613" y="727" width="30" height="60" as="geometry" />
        </mxCell>
        <mxCell id="t5gFfkrr7vGu0fTsxDdn-20" value="on" style="edgeStyle=none;curved=1;rounded=0;orthogonalLoop=1;jettySize=auto;html=1;entryX=0;entryY=0.75;entryDx=0;entryDy=0;fontSize=12;startSize=8;endSize=8;fillColor=#cce5ff;strokeColor=#36393d;strokeWidth=2;shadow=0;" edge="1" parent="1" source="t5gFfkrr7vGu0fTsxDdn-4" target="t5gFfkrr7vGu0fTsxDdn-10">
          <mxGeometry relative="1" as="geometry" />
        </mxCell>
        <mxCell id="t5gFfkrr7vGu0fTsxDdn-4" value="Classes&amp;nbsp;" style="rounded=1;arcSize=10;whiteSpace=wrap;html=1;align=center;fontSize=16;fillColor=#cce5ff;strokeColor=#36393d;strokeWidth=2;shadow=0;" vertex="1" parent="1">
          <mxGeometry x="771" y="626" width="100" height="40" as="geometry" />
        </mxCell>
        <mxCell id="t5gFfkrr7vGu0fTsxDdn-21" value="on" style="edgeStyle=none;curved=1;rounded=0;orthogonalLoop=1;jettySize=auto;html=1;entryX=0.5;entryY=1;entryDx=0;entryDy=0;fontSize=12;startSize=8;endSize=8;fillColor=#cce5ff;strokeColor=#36393d;strokeWidth=2;shadow=0;" edge="1" parent="1" source="t5gFfkrr7vGu0fTsxDdn-5" target="t5gFfkrr7vGu0fTsxDdn-10">
          <mxGeometry relative="1" as="geometry" />
        </mxCell>
        <mxCell id="t5gFfkrr7vGu0fTsxDdn-5" value="workshops" style="rounded=1;arcSize=10;whiteSpace=wrap;html=1;align=center;fontSize=16;fillColor=#cce5ff;strokeColor=#36393d;strokeWidth=2;shadow=0;" vertex="1" parent="1">
          <mxGeometry x="771" y="729" width="100" height="40" as="geometry" />
        </mxCell>
        <mxCell id="t5gFfkrr7vGu0fTsxDdn-32" value="for" style="edgeStyle=none;curved=1;rounded=0;orthogonalLoop=1;jettySize=auto;html=1;entryX=0.5;entryY=0;entryDx=0;entryDy=0;fontSize=12;startSize=8;endSize=8;fillColor=#cce5ff;strokeColor=#36393d;strokeWidth=2;shadow=0;" edge="1" parent="1" source="t5gFfkrr7vGu0fTsxDdn-6" target="t5gFfkrr7vGu0fTsxDdn-12">
          <mxGeometry relative="1" as="geometry" />
        </mxCell>
        <mxCell id="t5gFfkrr7vGu0fTsxDdn-6" value="Payments" style="rounded=1;arcSize=10;whiteSpace=wrap;html=1;align=center;fontSize=16;fillColor=#cce5ff;strokeColor=#36393d;strokeWidth=2;shadow=0;" vertex="1" parent="1">
          <mxGeometry x="953" y="1087" width="100" height="40" as="geometry" />
        </mxCell>
        <mxCell id="t5gFfkrr7vGu0fTsxDdn-35" value="to" style="edgeStyle=none;curved=1;rounded=0;orthogonalLoop=1;jettySize=auto;html=1;entryX=0.5;entryY=0;entryDx=0;entryDy=0;fontSize=12;startSize=8;endSize=8;fillColor=#cce5ff;strokeColor=#36393d;strokeWidth=2;shadow=0;" edge="1" parent="1" source="t5gFfkrr7vGu0fTsxDdn-7" target="t5gFfkrr7vGu0fTsxDdn-14">
          <mxGeometry relative="1" as="geometry" />
        </mxCell>
        <mxCell id="t5gFfkrr7vGu0fTsxDdn-7" value="Trainers" style="rounded=1;arcSize=10;whiteSpace=wrap;html=1;align=center;fontSize=16;fillColor=#cce5ff;strokeColor=#36393d;strokeWidth=2;shadow=0;" vertex="1" parent="1">
          <mxGeometry x="771" y="832" width="100" height="40" as="geometry" />
        </mxCell>
        <mxCell id="t5gFfkrr7vGu0fTsxDdn-9" value="Applications" style="rounded=1;arcSize=10;whiteSpace=wrap;html=1;align=center;fontSize=16;fillColor=#cce5ff;strokeColor=#36393d;strokeWidth=2;shadow=0;" vertex="1" parent="1">
          <mxGeometry x="953" y="974" width="100" height="40" as="geometry" />
        </mxCell>
        <mxCell id="t5gFfkrr7vGu0fTsxDdn-10" value="Skills&amp;nbsp;" style="rounded=1;arcSize=10;whiteSpace=wrap;html=1;align=center;fontSize=16;fillColor=#cce5ff;strokeColor=#36393d;strokeWidth=2;shadow=0;" vertex="1" parent="1">
          <mxGeometry x="953" y="666" width="100" height="40" as="geometry" />
        </mxCell>
        <mxCell id="t5gFfkrr7vGu0fTsxDdn-23" value="accepts" style="edgeStyle=none;curved=1;rounded=0;orthogonalLoop=1;jettySize=auto;html=1;entryX=0;entryY=0.75;entryDx=0;entryDy=0;fontSize=12;startSize=8;endSize=8;fillColor=#cce5ff;strokeColor=#36393d;strokeWidth=2;shadow=0;" edge="1" parent="1" source="t5gFfkrr7vGu0fTsxDdn-11" target="t5gFfkrr7vGu0fTsxDdn-9">
          <mxGeometry relative="1" as="geometry" />
        </mxCell>
        <mxCell id="t5gFfkrr7vGu0fTsxDdn-25" value="approves" style="edgeStyle=none;curved=1;rounded=0;orthogonalLoop=1;jettySize=auto;html=1;fontSize=12;startSize=8;endSize=8;fillColor=#cce5ff;strokeColor=#36393d;strokeWidth=2;shadow=0;" edge="1" parent="1" source="t5gFfkrr7vGu0fTsxDdn-11" target="t5gFfkrr7vGu0fTsxDdn-12">
          <mxGeometry relative="1" as="geometry" />
        </mxCell>
        <mxCell id="t5gFfkrr7vGu0fTsxDdn-26" value="creates" style="edgeStyle=none;curved=1;rounded=0;orthogonalLoop=1;jettySize=auto;html=1;entryX=0;entryY=0.5;entryDx=0;entryDy=0;fontSize=12;startSize=8;endSize=8;fillColor=#cce5ff;strokeColor=#36393d;strokeWidth=2;shadow=0;" edge="1" parent="1" source="t5gFfkrr7vGu0fTsxDdn-11" target="t5gFfkrr7vGu0fTsxDdn-14">
          <mxGeometry relative="1" as="geometry" />
        </mxCell>
        <mxCell id="t5gFfkrr7vGu0fTsxDdn-34" value="assigns" style="edgeStyle=none;curved=1;rounded=0;orthogonalLoop=1;jettySize=auto;html=1;entryX=0;entryY=0.75;entryDx=0;entryDy=0;fontSize=12;startSize=8;endSize=8;fillColor=#cce5ff;strokeColor=#36393d;strokeWidth=2;shadow=0;" edge="1" parent="1" source="t5gFfkrr7vGu0fTsxDdn-11" target="t5gFfkrr7vGu0fTsxDdn-7">
          <mxGeometry relative="1" as="geometry" />
        </mxCell>
        <mxCell id="t5gFfkrr7vGu0fTsxDdn-11" value="A2Z - Cordinator" style="shape=umlActor;verticalLabelPosition=bottom;verticalAlign=top;html=1;outlineConnect=0;fontSize=16;fillColor=#cce5ff;strokeColor=#36393d;strokeWidth=2;shadow=0;" vertex="1" parent="1">
          <mxGeometry x="613" y="911" width="30" height="60" as="geometry" />
        </mxCell>
        <mxCell id="t5gFfkrr7vGu0fTsxDdn-12" value="Enrolments" style="rounded=1;arcSize=10;whiteSpace=wrap;html=1;align=center;fontSize=16;fillColor=#cce5ff;strokeColor=#36393d;strokeWidth=2;shadow=0;" vertex="1" parent="1">
          <mxGeometry x="953" y="1256" width="100" height="40" as="geometry" />
        </mxCell>
        <mxCell id="t5gFfkrr7vGu0fTsxDdn-27" value="submits" style="edgeStyle=none;curved=1;rounded=0;orthogonalLoop=1;jettySize=auto;html=1;entryX=1;entryY=0.5;entryDx=0;entryDy=0;fontSize=12;startSize=8;endSize=8;fillColor=#cce5ff;strokeColor=#36393d;strokeWidth=2;shadow=0;" edge="1" parent="1" source="t5gFfkrr7vGu0fTsxDdn-13" target="t5gFfkrr7vGu0fTsxDdn-9">
          <mxGeometry relative="1" as="geometry" />
        </mxCell>
        <mxCell id="t5gFfkrr7vGu0fTsxDdn-31" value="makes" style="edgeStyle=none;curved=1;rounded=0;orthogonalLoop=1;jettySize=auto;html=1;entryX=1;entryY=0.5;entryDx=0;entryDy=0;fontSize=12;startSize=8;endSize=8;fillColor=#cce5ff;strokeColor=#36393d;strokeWidth=2;shadow=0;" edge="1" parent="1" source="t5gFfkrr7vGu0fTsxDdn-13" target="t5gFfkrr7vGu0fTsxDdn-6">
          <mxGeometry relative="1" as="geometry" />
        </mxCell>
        <mxCell id="t5gFfkrr7vGu0fTsxDdn-13" value="Applicants&amp;nbsp;" style="shape=umlActor;verticalLabelPosition=bottom;verticalAlign=top;html=1;outlineConnect=0;fontSize=16;fillColor=#cce5ff;strokeColor=#36393d;strokeWidth=2;shadow=0;" vertex="1" parent="1">
          <mxGeometry x="1275" y="812" width="30" height="60" as="geometry" />
        </mxCell>
        <mxCell id="t5gFfkrr7vGu0fTsxDdn-14" value="Batchs" style="rounded=1;arcSize=10;whiteSpace=wrap;html=1;align=center;fontSize=16;fillColor=#cce5ff;strokeColor=#36393d;strokeWidth=2;shadow=0;" vertex="1" parent="1">
          <mxGeometry x="953" y="881" width="100" height="40" as="geometry" />
        </mxCell>
        <mxCell id="t5gFfkrr7vGu0fTsxDdn-29" value="analyses" style="edgeStyle=none;curved=1;rounded=0;orthogonalLoop=1;jettySize=auto;html=1;fontSize=12;startSize=8;endSize=8;fillColor=#cce5ff;strokeColor=#36393d;strokeWidth=2;shadow=0;" edge="1" parent="1" source="t5gFfkrr7vGu0fTsxDdn-15" target="t5gFfkrr7vGu0fTsxDdn-12">
          <mxGeometry relative="1" as="geometry" />
        </mxCell>
        <mxCell id="t5gFfkrr7vGu0fTsxDdn-30" value="analyses" style="edgeStyle=none;curved=1;rounded=0;orthogonalLoop=1;jettySize=auto;html=1;entryX=1;entryY=0.5;entryDx=0;entryDy=0;fontSize=12;startSize=8;endSize=8;fillColor=#cce5ff;strokeColor=#36393d;strokeWidth=2;shadow=0;" edge="1" parent="1" source="t5gFfkrr7vGu0fTsxDdn-15" target="t5gFfkrr7vGu0fTsxDdn-9">
          <mxGeometry relative="1" as="geometry" />
        </mxCell>
        <mxCell id="t5gFfkrr7vGu0fTsxDdn-15" value="CEO" style="shape=umlActor;verticalLabelPosition=bottom;verticalAlign=top;html=1;outlineConnect=0;fontSize=16;fillColor=#cce5ff;strokeColor=#36393d;strokeWidth=2;shadow=0;" vertex="1" parent="1">
          <mxGeometry x="1275" y="1130" width="30" height="60" as="geometry" />
        </mxCell>
      </root>
    </mxGraphModel>
  </diagram>
  <diagram id="XCVRbay9sViH_rDqexco" name="Page-3">
    <mxGraphModel dx="842" dy="68" grid="0" gridSize="10" guides="1" tooltips="1" connect="1" arrows="1" fold="1" page="0" pageScale="1" pageWidth="1100" pageHeight="850" math="0" shadow="0">
      <root>
        <mxCell id="0" />
        <mxCell id="1" parent="0" />
        <mxCell id="39N8kmnS3S1J8yS4hfhe-1" value="Course" style="rounded=1;arcSize=10;whiteSpace=wrap;html=1;align=center;fontSize=16;fillColor=#ffe6cc;strokeColor=#d79b00;" vertex="1" parent="1">
          <mxGeometry x="872" y="1433" width="100" height="40" as="geometry" />
        </mxCell>
        <mxCell id="39N8kmnS3S1J8yS4hfhe-2" value="Skill" style="rounded=1;arcSize=10;whiteSpace=wrap;html=1;align=center;fontSize=16;fillColor=#ffe6cc;strokeColor=#d79b00;" vertex="1" parent="1">
          <mxGeometry x="682" y="1393" width="100" height="40" as="geometry" />
        </mxCell>
        <mxCell id="39N8kmnS3S1J8yS4hfhe-3" value="" style="edgeStyle=orthogonalEdgeStyle;fontSize=12;html=1;endArrow=ERoneToMany;rounded=0;startSize=8;endSize=8;entryX=0;entryY=0.5;entryDx=0;entryDy=0;strokeWidth=2;fillColor=#ffe6cc;strokeColor=#d79b00;" edge="1" parent="1" source="39N8kmnS3S1J8yS4hfhe-2" target="39N8kmnS3S1J8yS4hfhe-1">
          <mxGeometry width="100" height="100" relative="1" as="geometry">
            <mxPoint x="877" y="1474" as="sourcePoint" />
            <mxPoint x="745" y="1474" as="targetPoint" />
          </mxGeometry>
        </mxCell>
        <mxCell id="rCkSNP4CYVst1J9u9_GG-1" value="workshop" style="rounded=1;arcSize=10;whiteSpace=wrap;html=1;align=center;fontSize=16;fillColor=#ffe6cc;strokeColor=#d79b00;" vertex="1" parent="1">
          <mxGeometry x="872" y="1530" width="100" height="40" as="geometry" />
        </mxCell>
        <mxCell id="rCkSNP4CYVst1J9u9_GG-2" value="" style="edgeStyle=orthogonalEdgeStyle;fontSize=12;html=1;endArrow=ERmany;startArrow=ERmany;rounded=0;startSize=8;endSize=8;entryX=0;entryY=0.5;entryDx=0;entryDy=0;exitX=0.5;exitY=1;exitDx=0;exitDy=0;strokeWidth=2;fillColor=#ffe6cc;strokeColor=#d79b00;" edge="1" parent="1" source="39N8kmnS3S1J8yS4hfhe-2" target="rCkSNP4CYVst1J9u9_GG-1">
          <mxGeometry width="100" height="100" relative="1" as="geometry">
            <mxPoint x="707" y="1617" as="sourcePoint" />
            <mxPoint x="807" y="1517" as="targetPoint" />
          </mxGeometry>
        </mxCell>
        <mxCell id="HvLA1GMiKt2Sou2dbiYp-1" value="Trainer" style="rounded=1;arcSize=10;whiteSpace=wrap;html=1;align=center;fontSize=16;fillColor=#ffe6cc;strokeColor=#d79b00;" vertex="1" parent="1">
          <mxGeometry x="872" y="1293" width="100" height="40" as="geometry" />
        </mxCell>
        <mxCell id="HvLA1GMiKt2Sou2dbiYp-3" value="" style="edgeStyle=orthogonalEdgeStyle;fontSize=12;html=1;endArrow=ERoneToMany;rounded=0;startSize=8;endSize=8;exitX=0.5;exitY=1;exitDx=0;exitDy=0;entryX=0.5;entryY=0;entryDx=0;entryDy=0;strokeWidth=2;fillColor=#ffe6cc;strokeColor=#d79b00;" edge="1" parent="1" source="HvLA1GMiKt2Sou2dbiYp-1" target="39N8kmnS3S1J8yS4hfhe-1">
          <mxGeometry width="100" height="100" relative="1" as="geometry">
            <mxPoint x="1044" y="1445" as="sourcePoint" />
            <mxPoint x="1144" y="1345" as="targetPoint" />
          </mxGeometry>
        </mxCell>
        <mxCell id="T30jeXrUhL5pBgoJG5Vv-1" value="Batch" style="rounded=1;arcSize=10;whiteSpace=wrap;html=1;align=center;fontSize=16;fillColor=#ffe6cc;strokeColor=#d79b00;" vertex="1" parent="1">
          <mxGeometry x="1122" y="1433" width="100" height="40" as="geometry" />
        </mxCell>
        <mxCell id="T30jeXrUhL5pBgoJG5Vv-2" value="" style="edgeStyle=orthogonalEdgeStyle;fontSize=12;html=1;endArrow=ERmany;rounded=0;startSize=8;endSize=8;exitX=1;exitY=0.5;exitDx=0;exitDy=0;entryX=0;entryY=0.5;entryDx=0;entryDy=0;strokeWidth=2;fillColor=#ffe6cc;strokeColor=#d79b00;" edge="1" parent="1" source="39N8kmnS3S1J8yS4hfhe-1" target="T30jeXrUhL5pBgoJG5Vv-1">
          <mxGeometry width="100" height="100" relative="1" as="geometry">
            <mxPoint x="1076" y="1638" as="sourcePoint" />
            <mxPoint x="1176" y="1538" as="targetPoint" />
          </mxGeometry>
        </mxCell>
        <mxCell id="s7nQXRcqnuRi8mTUaFGD-1" value="Payment" style="rounded=1;arcSize=10;whiteSpace=wrap;html=1;align=center;fontSize=16;fillColor=#ffe6cc;strokeColor=#d79b00;" vertex="1" parent="1">
          <mxGeometry x="1086" y="1629" width="100" height="40" as="geometry" />
        </mxCell>
        <mxCell id="s7nQXRcqnuRi8mTUaFGD-2" value="Application" style="rounded=1;arcSize=10;whiteSpace=wrap;html=1;align=center;fontSize=16;fillColor=#ffe6cc;strokeColor=#d79b00;" vertex="1" parent="1">
          <mxGeometry x="872" y="1718" width="100" height="40" as="geometry" />
        </mxCell>
        <mxCell id="s7nQXRcqnuRi8mTUaFGD-3" value="Enrolment" style="rounded=1;arcSize=10;whiteSpace=wrap;html=1;align=center;fontSize=16;fillColor=#ffe6cc;strokeColor=#d79b00;" vertex="1" parent="1">
          <mxGeometry x="1122" y="1791" width="100" height="40" as="geometry" />
        </mxCell>
        <mxCell id="4kmFAP2ucdrnicb-2np6-1" value="Applicant" style="rounded=1;arcSize=10;whiteSpace=wrap;html=1;align=center;fontSize=16;fillColor=#ffe6cc;strokeColor=#d79b00;" vertex="1" parent="1">
          <mxGeometry x="682" y="1610" width="100" height="40" as="geometry" />
        </mxCell>
        <mxCell id="4kmFAP2ucdrnicb-2np6-2" value="" style="edgeStyle=orthogonalEdgeStyle;fontSize=12;html=1;endArrow=ERoneToMany;rounded=0;startSize=8;endSize=8;entryX=0;entryY=0.5;entryDx=0;entryDy=0;strokeWidth=2;fillColor=#ffe6cc;strokeColor=#d79b00;" edge="1" parent="1" source="4kmFAP2ucdrnicb-2np6-1" target="s7nQXRcqnuRi8mTUaFGD-2">
          <mxGeometry width="100" height="100" relative="1" as="geometry">
            <mxPoint x="868" y="1642" as="sourcePoint" />
            <mxPoint x="968" y="1542" as="targetPoint" />
          </mxGeometry>
        </mxCell>
        <mxCell id="4kmFAP2ucdrnicb-2np6-3" value="" style="edgeStyle=orthogonalEdgeStyle;fontSize=12;html=1;endArrow=ERmandOne;startArrow=ERmandOne;rounded=0;startSize=8;endSize=8;entryX=0;entryY=0.5;entryDx=0;entryDy=0;exitX=0.5;exitY=0;exitDx=0;exitDy=0;strokeWidth=2;fillColor=#ffe6cc;strokeColor=#d79b00;" edge="1" parent="1" source="s7nQXRcqnuRi8mTUaFGD-2" target="s7nQXRcqnuRi8mTUaFGD-1">
          <mxGeometry width="100" height="100" relative="1" as="geometry">
            <mxPoint x="1142" y="1683" as="sourcePoint" />
            <mxPoint x="1242" y="1583" as="targetPoint" />
          </mxGeometry>
        </mxCell>
        <mxCell id="4kmFAP2ucdrnicb-2np6-4" value="" style="edgeStyle=orthogonalEdgeStyle;fontSize=12;html=1;endArrow=ERmandOne;startArrow=ERmandOne;rounded=0;startSize=8;endSize=8;entryX=1;entryY=0.5;entryDx=0;entryDy=0;exitX=0.5;exitY=0;exitDx=0;exitDy=0;strokeWidth=2;fillColor=#ffe6cc;strokeColor=#d79b00;" edge="1" parent="1" source="s7nQXRcqnuRi8mTUaFGD-3" target="s7nQXRcqnuRi8mTUaFGD-2">
          <mxGeometry width="100" height="100" relative="1" as="geometry">
            <mxPoint x="913" y="1785" as="sourcePoint" />
            <mxPoint x="1013" y="1685" as="targetPoint" />
          </mxGeometry>
        </mxCell>
        <mxCell id="4kmFAP2ucdrnicb-2np6-5" value="" style="edgeStyle=orthogonalEdgeStyle;fontSize=12;html=1;endArrow=ERoneToMany;rounded=0;startSize=8;endSize=8;entryX=1;entryY=0.5;entryDx=0;entryDy=0;exitX=1;exitY=0.5;exitDx=0;exitDy=0;strokeWidth=2;fillColor=#ffe6cc;strokeColor=#d79b00;" edge="1" parent="1" source="s7nQXRcqnuRi8mTUaFGD-3" target="T30jeXrUhL5pBgoJG5Vv-1">
          <mxGeometry width="100" height="100" relative="1" as="geometry">
            <mxPoint x="1181" y="1767" as="sourcePoint" />
            <mxPoint x="1248" y="1557" as="targetPoint" />
          </mxGeometry>
        </mxCell>
        <mxCell id="4kmFAP2ucdrnicb-2np6-6" value="&lt;h2 style=&quot;text-align: left;&quot;&gt;&lt;/h2&gt;&lt;h1 style=&quot;text-align: left; font-size: 24px;&quot;&gt;&lt;span style=&quot;background-color: initial;&quot;&gt;&lt;font style=&quot;font-size: 24px;&quot; color=&quot;#ff0000&quot;&gt;&lt;b&gt;A2Z Learning Solutions Sales&amp;nbsp;&lt;/b&gt;&lt;/font&gt;&lt;/span&gt;&lt;/h1&gt;&lt;span style=&quot;background-color: initial;&quot;&gt;&lt;div style=&quot;text-align: left;&quot;&gt;&lt;b style=&quot;font-size: x-small; background-color: initial;&quot;&gt;&lt;i style=&quot;font-size: 16px;&quot;&gt;&lt;font color=&quot;#331a00&quot;&gt;Conceptual Model&lt;/font&gt;&lt;/i&gt;&lt;/b&gt;&lt;/div&gt;&lt;/span&gt;" style="text;html=1;align=center;verticalAlign=middle;resizable=0;points=[];autosize=1;strokeColor=none;fillColor=none;fontSize=16;" vertex="1" parent="1">
          <mxGeometry x="539" y="1151" width="363" height="96" as="geometry" />
        </mxCell>
      </root>
    </mxGraphModel>
  </diagram>
</mxfile>
